<?xml version="1.0" standalone="no"?>
<!DOCTYPE svg PUBLIC "-//W3C//DTD SVG 20010904//EN"
 "http://www.w3.org/TR/2001/REC-SVG-20010904/DTD/svg10.dtd">
<svg version="1.0" xmlns="http://www.w3.org/2000/svg"
 width="1200.000000pt" height="688.000000pt" viewBox="0 0 1200.000000 688.000000"
 preserveAspectRatio="xMidYMid meet">
<metadata>
Created by potrace 1.16, written by Peter Selinger 2001-2019
</metadata>
<g transform="translate(0.000000,688.000000) scale(0.100000,-0.100000)"
fill="#000000" stroke="none">
<path d="M892 6870 c3 -9 -7 -22 -24 -33 -51 -31 -100 -183 -128 -402 -11 -82
-22 -159 -26 -170 -3 -13 9 -52 31 -100 20 -43 46 -102 56 -132 17 -44 36 -73
40 -61 1 2 7 86 14 188 9 120 21 213 35 265 24 90 85 246 99 255 6 3 -8 41
-31 85 -41 80 -74 133 -66 105z"/>
<path d="M4525 6804 c-17 -8 -22 -12 -12 -9 61 17 60 17 172 -77 60 -51 132
-114 160 -141 l50 -47 -24 -20 c-13 -11 -28 -20 -35 -20 -6 1 1 8 17 16 15 8
27 18 27 22 0 15 -219 173 -231 167 -6 -4 -9 -24 -7 -45 4 -46 -18 -44 -30 3
-9 35 -32 49 -32 19 0 -25 -20 -31 -140 -39 -77 -5 -117 -14 -215 -50 -66 -24
-134 -50 -152 -58 -17 -8 -65 -25 -107 -39 -41 -14 -86 -37 -100 -51 -32 -32
-32 -35 -3 -28 12 3 20 4 17 1 -7 -8 -229 -88 -243 -88 -19 0 13 27 73 60 68
39 74 41 -212 -70 -237 -92 -238 -93 -230 -119 4 -14 7 -71 6 -126 -1 -108
-18 -163 -55 -172 -10 -3 -16 -9 -13 -14 3 -6 -4 -26 -15 -45 -21 -35 -21 -35
-1 -29 12 4 20 2 20 -5 0 -6 6 -8 13 -4 9 5 9 4 1 -5 -8 -9 -9 -24 -2 -49 18
-73 28 -90 49 -85 22 6 26 -16 9 -48 -8 -14 -6 -28 9 -58 18 -34 19 -40 5 -45
-20 -8 -34 1 -34 20 0 8 -5 12 -10 9 -7 -4 -9 3 -5 22 4 22 3 24 -4 8 -7 -17
-13 -10 -42 50 -41 84 -38 80 -44 73 -3 -3 1 -31 9 -64 8 -32 15 -53 15 -46 1
8 13 0 27 -17 21 -25 23 -34 14 -51 -16 -30 -55 -26 -69 8 -17 44 -30 114 -31
165 0 40 4 51 31 75 27 24 29 28 11 28 -11 0 -19 -3 -17 -6 1 -3 -3 -11 -11
-18 -12 -11 -14 -10 -14 6 0 23 23 45 35 34 5 -4 5 -1 1 6 -4 6 -2 12 3 12 6
0 11 5 11 12 0 6 -9 3 -20 -7 -24 -22 -26 -13 -5 19 20 31 31 121 16 130 -6 4
-11 2 -11 -4 0 -8 -12 -10 -39 -5 -29 5 -42 2 -55 -11 -20 -20 -18 -23 17 -26
15 -1 27 -6 27 -11 0 -5 6 -4 14 2 11 10 15 8 18 -6 4 -20 -11 -105 -21 -113
-3 -3 -6 -25 -7 -50 -1 -40 -6 -48 -50 -88 -27 -24 -48 -47 -47 -51 1 -5 -5
-8 -15 -7 -9 0 -17 -6 -17 -14 -1 -8 -7 -14 -14 -12 -8 2 -25 -7 -38 -20 l-25
-23 -99 52 c-107 56 -133 64 -44 13 30 -17 55 -35 55 -40 0 -40 -34 -51 -82
-26 -27 14 -28 14 -28 -13 0 -31 14 -47 45 -53 24 -4 34 -38 11 -38 -9 0 -16
-7 -16 -16 0 -11 6 -15 20 -11 10 3 21 0 23 -7 2 -6 7 4 12 23 5 25 10 30 16
20 6 -9 7 -4 3 16 -7 29 -5 28 62 -30 95 -83 114 -96 77 -52 -18 21 -33 44
-33 51 0 20 178 59 233 51 46 -7 62 -4 287 64 74 23 159 44 188 48 29 3 50 8
47 11 -10 11 29 42 53 42 62 0 171 86 209 166 14 28 25 33 161 73 81 23 203
60 272 81 69 22 146 45 172 52 36 9 50 18 58 38 8 20 31 35 83 58 84 37 84 37
90 15 4 -15 5 -14 6 3 1 16 15 25 70 42 37 12 75 30 84 40 17 19 117 239 117
257 0 6 -25 32 -55 59 -30 26 -54 50 -53 54 2 4 -6 20 -16 35 -15 23 -17 30
-6 40 7 7 10 7 7 1 -3 -6 0 -11 8 -11 21 0 13 9 -95 97 l-100 81 -93 -2 c-56
-1 -104 -7 -122 -15z m-854 -980 c21 -19 16 -72 -9 -91 -9 -7 -12 -13 -6 -13
5 0 2 -5 -6 -10 -20 -13 -67 -13 -75 0 -4 6 -9 8 -13 6 -4 -2 -8 10 -9 27 -1
17 -7 33 -13 37 -20 12 15 40 60 49 25 5 47 9 49 10 3 1 12 -6 22 -15z"/>
<path d="M1536 6700 c-22 -11 -48 -18 -58 -14 -12 3 -17 1 -16 -7 4 -17 -90
-51 -111 -40 -9 5 -38 12 -64 16 -26 4 -55 14 -62 22 -8 8 -15 10 -15 5 0 -5
-14 -12 -32 -16 -63 -13 -78 -30 -78 -94 l0 -57 -30 53 c-17 28 -33 52 -35 52
-3 0 8 -24 25 -53 16 -30 27 -57 23 -62 -5 -4 -2 -5 5 -1 11 6 17 -5 13 -26 0
-5 4 -8 10 -8 5 0 7 -4 4 -10 -3 -5 -1 -10 5 -10 6 0 8 -4 5 -10 -3 -5 -1 -10
4 -10 14 0 13 10 -4 40 -8 14 -14 28 -15 33 0 4 36 -11 80 -33 l80 -40 28 27
c15 16 21 24 12 18 -9 -5 4 9 29 32 32 29 45 49 43 63 -3 15 5 24 32 35 54 23
62 20 75 -31 7 -26 14 -44 17 -41 3 3 0 24 -6 47 -6 23 -9 45 -5 48 3 4 32 17
63 29 53 21 54 22 17 16 -36 -6 -39 -5 -26 10 7 9 17 15 21 12 4 -3 13 2 20
10 18 22 -5 19 -54 -5z"/>
<path d="M3900 6610 c-25 -16 -64 -44 -88 -61 -23 -17 -97 -51 -164 -76 -67
-24 -124 -46 -127 -50 -3 -3 1 -4 10 0 27 9 31 -39 5 -52 -19 -10 -19 -11 4
-5 43 12 106 43 88 43 -10 1 -18 9 -18 19 0 12 15 23 48 35 58 21 71 21 93 1
14 -13 21 -13 36 -4 16 10 16 11 1 6 -34 -10 -18 5 59 55 93 61 117 84 106
104 -7 11 -16 9 -53 -15z"/>
<path d="M2385 6408 c-56 -74 -77 -114 -101 -190 -17 -57 -18 -58 -55 -58 -20
0 -55 -7 -77 -14 -24 -9 -44 -11 -47 -6 -3 5 -12 7 -19 4 -8 -3 -34 9 -58 26
-39 27 -53 31 -104 30 -108 -2 -128 -1 -152 5 -21 5 -24 3 -19 -14 3 -12 -3
-31 -13 -43 -9 -13 -20 -33 -24 -45 -4 -13 -12 -23 -17 -23 -5 0 -9 -10 -9
-21 0 -17 3 -19 14 -10 11 10 16 8 21 -8 4 -15 12 -18 33 -14 15 3 35 6 45 7
9 1 31 13 49 26 28 21 36 22 72 12 25 -6 47 -7 57 -1 12 6 21 4 29 -6 16 -19
6 -45 -18 -45 -10 0 -39 -13 -64 -29 -58 -37 -100 -104 -96 -156 l2 -37 19 24
c11 12 24 22 29 20 5 -1 7 2 3 7 -6 11 64 51 90 51 8 0 15 -8 16 -17 2 -27 7
-65 14 -98 19 -90 35 -167 35 -170 0 -2 -10 -6 -22 -8 l-23 -4 22 -2 c22 -1
27 -11 35 -64 2 -13 -19 -29 -79 -61 l-82 -44 -4 26 -4 27 -2 -27 c-1 -31 -17
-35 -47 -13 -10 8 -27 15 -37 15 -11 0 -21 9 -24 21 -4 14 -8 17 -13 9 -4 -7
-17 29 -30 80 -12 50 -20 93 -18 96 3 2 11 -23 18 -56 7 -33 15 -58 17 -56 3
3 -3 39 -13 81 -12 51 -20 71 -24 59 -5 -14 -9 -9 -14 19 -5 25 -3 44 4 52 13
16 8 18 -95 35 -100 17 -145 27 -153 35 -4 4 5 5 21 1 15 -3 46 -8 70 -10 23
-2 30 -1 15 1 -16 2 -28 8 -28 12 0 5 -11 6 -25 3 -14 -2 -25 0 -25 7 0 6 -7
8 -17 4 -11 -4 -14 -3 -9 5 4 7 3 12 -3 12 -11 0 -103 157 -106 180 -2 25 -27
70 -36 64 -5 -3 -6 3 -2 12 5 13 3 15 -7 9 -9 -5 -11 -4 -6 3 4 6 -4 28 -17
49 -13 21 -36 62 -51 91 -14 28 -32 52 -39 51 -9 0 -9 -2 1 -6 6 -2 10 -9 6
-14 -3 -5 0 -9 5 -9 6 0 10 -3 9 -7 -1 -5 9 -28 22 -53 31 -60 38 -163 16
-248 -14 -55 -29 -98 -105 -294 -10 -25 -38 -76 -62 -113 -40 -60 -45 -64 -58
-48 -15 20 -14 16 14 -49 11 -26 30 -52 43 -57 12 -6 26 -21 31 -34 5 -14 27
-33 48 -45 21 -11 37 -26 35 -33 -2 -8 0 -11 3 -7 10 9 65 -19 65 -33 0 -6 4
-8 9 -5 5 3 23 -1 40 -10 38 -19 48 -14 61 37 12 42 7 59 -15 59 -18 0 -11 50
24 155 19 58 32 83 49 91 16 8 19 13 11 16 -10 3 -6 14 14 37 15 18 27 39 27
47 0 9 3 13 8 11 4 -3 8 5 8 16 3 47 9 77 15 77 11 0 129 -137 123 -143 -3 -3
-16 -46 -29 -96 l-23 -91 24 -57 c13 -32 24 -67 24 -77 0 -11 9 -30 21 -42
l20 -22 -103 -62 c-56 -34 -114 -71 -127 -81 -17 -14 -27 -16 -37 -8 -10 8
-11 5 -7 -12 5 -18 3 -21 -11 -16 -11 4 -15 3 -11 -4 4 -6 -1 -20 -12 -32 -10
-12 0 -6 23 14 47 42 159 119 171 119 4 0 -8 -14 -27 -30 -19 -16 -32 -30 -29
-30 12 0 84 62 82 71 -2 5 2 10 7 10 6 1 15 2 20 3 6 0 15 8 20 16 5 8 10 12
10 7 0 -8 113 47 140 68 8 6 50 27 92 46 42 18 75 35 74 37 -2 1 -34 -9 -71
-23 -148 -56 -90 -14 147 106 110 55 168 89 168 100 0 8 10 26 22 39 l23 24 6
-29 5 -30 5 32 c3 20 2 30 -5 26 -5 -4 -7 1 -3 10 4 10 2 16 -5 14 -6 -1 -13
4 -16 12 -3 9 0 11 9 6 8 -5 11 -4 6 1 -5 5 -12 9 -15 9 -4 0 -13 4 -19 8 -8
5 -14 4 -14 -2 -1 -6 -2 -15 -3 -20 0 -6 -8 -16 -16 -23 -12 -11 -12 -11 -1 5
16 21 -1 23 -19 2 -7 -8 -19 -15 -27 -15 -7 0 -24 -7 -37 -16 -13 -8 -26 -11
-29 -7 -11 18 -37 166 -32 182 3 9 17 24 31 35 34 24 126 49 134 35 4 -5 12 3
19 18 21 45 70 212 86 289 14 74 56 169 97 220 43 53 51 64 45 64 -3 0 -26
-28 -52 -62z"/>
<path d="M1691 6278 c-71 -22 -99 -27 -115 -20 -53 25 -109 42 -142 42 -41 0
-89 -23 -103 -48 -10 -19 -18 -118 -10 -126 13 -13 162 -77 171 -74 6 2 -28
21 -76 42 l-86 39 0 48 c0 27 2 49 4 49 2 0 40 -14 83 -30 l80 -30 11 -51 c7
-28 10 -55 6 -60 -9 -15 12 -10 25 5 14 16 48 10 74 -13 13 -11 17 -25 14 -46
-3 -20 3 -45 18 -75 l24 -45 -6 37 c-3 23 -1 44 7 52 18 22 15 104 -5 126 -9
10 -20 31 -25 46 -8 27 -8 27 -9 5 -1 -20 -3 -21 -16 -11 -8 7 -15 23 -15 36
0 25 15 33 23 12 4 -9 6 -7 6 3 1 12 25 23 86 39 47 13 85 26 85 30 0 4 -37
-1 -81 -12 -45 -10 -84 -17 -86 -14 -5 4 88 41 132 52 14 3 25 10 25 15 0 5
-1 9 -2 8 -2 0 -45 -14 -97 -31z"/>
<path d="M5181 6184 c0 -17 -20 -69 -43 -115 -38 -73 -57 -97 -161 -193 -101
-94 -119 -107 -130 -94 -6 9 -24 18 -39 20 -30 6 -38 -10 -38 -75 0 -21 -5
-58 -11 -82 -11 -44 -7 -97 10 -124 7 -11 15 -11 44 -2 41 14 55 38 31 56 -15
10 -16 24 -11 91 4 43 11 82 16 87 4 4 11 -28 14 -73 4 -45 9 -85 12 -91 13
-20 58 -7 155 42 86 45 108 61 153 117 28 35 51 71 49 79 -4 20 17 43 40 43
14 0 18 -5 14 -15 -5 -13 1 -15 32 -9 47 8 84 25 90 42 3 10 -11 11 -65 7 -63
-6 -67 -5 -49 9 11 9 39 16 62 16 39 0 72 19 57 33 -14 14 -115 6 -165 -13
-29 -11 -55 -20 -57 -20 -18 0 75 77 121 101 56 28 78 52 78 83 0 13 -18 7
-82 -25 -46 -23 -95 -50 -110 -61 -33 -23 -33 -23 -9 33 30 69 34 90 19 87 -8
-2 -15 12 -19 37 -6 36 -6 37 -8 9z"/>
<path d="M2455 6113 c-10 -150 -23 -172 -46 -80 -7 28 -14 45 -16 37 -4 -19
22 -192 42 -280 24 -106 15 -252 -17 -258 -15 -3 -15 1 -2 44 8 26 14 54 13
63 -1 19 -4 10 -19 -46 -16 -63 -30 -72 -106 -72 -73 1 -103 -15 -70 -35 11
-6 36 -26 57 -44 31 -28 44 -33 68 -27 l29 6 8 -63 8 -63 8 60 c12 92 14 98
59 144 59 60 82 67 122 37 18 -13 47 -31 65 -40 l32 -17 0 35 c0 31 -5 37 -55
65 -30 17 -58 39 -63 48 -14 30 -16 157 -2 148 9 -6 9 -2 1 14 -7 11 -16 21
-22 21 -6 0 -7 -5 -3 -11 15 -24 -46 25 -70 56 -35 45 -35 103 -2 134 l24 23
23 -26 c26 -30 55 -36 44 -8 -4 9 -11 31 -16 49 -7 22 -14 30 -24 26 -19 -7
-19 11 0 27 18 15 19 47 1 79 -13 23 -14 22 -27 -39 -21 -94 -41 -92 -32 4 3
42 3 76 0 76 -3 0 -8 -39 -12 -87z"/>
<path d="M2361 5953 c-1 -20 -4 -21 -27 -13 -14 6 -30 8 -35 4 -5 -3 -9 0 -9
7 0 17 -58 -39 -76 -74 -9 -16 -20 -25 -26 -21 -8 5 -9 2 -5 -9 3 -10 2 -17
-2 -17 -11 0 -8 -97 3 -107 4 -5 5 6 1 22 l-6 30 15 -32 c19 -41 28 -43 15 -4
-9 24 -6 37 15 78 l25 48 1 -41 c0 -22 5 -67 12 -99 10 -49 13 -55 23 -41 10
13 9 24 -6 53 -22 43 -25 79 -6 86 10 4 10 6 0 6 -14 1 -17 29 -7 55 4 12 20
16 56 16 l51 0 -8 -32 c-4 -18 -7 -42 -6 -54 0 -11 -8 -52 -19 -89 -11 -38
-18 -71 -16 -73 8 -7 37 101 48 179 9 55 9 86 1 110 -8 26 -11 29 -12 12z"/>
<path d="M5383 5717 c-171 -127 -351 -261 -399 -297 -49 -36 -200 -150 -336
-253 -172 -131 -252 -186 -262 -180 -34 20 -106 88 -106 101 0 27 -24 -4 -45
-57 -17 -46 -25 -53 -71 -72 -51 -22 -52 -23 -37 -45 13 -21 38 -102 27 -91
-2 2 -23 -15 -47 -38 -23 -23 -50 -46 -60 -52 -17 -9 -15 -13 17 -45 25 -25
36 -45 36 -65 0 -26 -5 -31 -41 -42 -23 -7 -39 -14 -37 -17 3 -2 19 1 37 7 29
10 34 8 71 -25 49 -44 65 -47 24 -5 -21 22 -24 28 -10 23 14 -5 17 -4 11 5 -6
10 -3 11 11 3 27 -15 51 -43 63 -76 10 -25 9 -28 -6 -22 -10 4 0 -11 22 -33
21 -23 44 -41 50 -40 5 0 4 3 -2 6 -7 2 -13 11 -13 18 0 7 -8 16 -17 18 -14 4
-13 5 4 6 31 1 73 -39 75 -72 1 -15 15 -39 30 -54 15 -15 28 -30 28 -34 0 -4
-36 -22 -80 -40 -44 -18 -80 -38 -80 -45 0 -6 -17 -19 -37 -27 -21 -8 -64 -27
-95 -41 -55 -24 -83 -22 -35 3 17 9 17 10 2 5 -11 -3 -25 -7 -31 -7 -6 0 -9
-9 -6 -19 6 -24 -4 -27 211 67 96 41 178 72 182 68 7 -8 25 -39 80 -138 26
-46 27 -51 12 -67 -9 -10 -19 -18 -22 -18 -4 0 -22 34 -40 75 -19 41 -39 75
-46 75 -7 0 -78 -29 -158 -65 -80 -36 -154 -68 -164 -70 -69 -15 -87 -16 -73
-6 12 9 10 11 -10 11 -16 0 -44 -16 -75 -44 l-50 -44 -12 32 c-11 30 -10 33
40 80 39 35 42 40 12 17 l-40 -31 -42 197 -42 198 25 23 c14 12 33 22 43 22
10 0 26 -10 35 -22 9 -13 14 -16 10 -8 -4 8 -14 23 -22 32 -13 16 -12 19 9 27
20 8 21 10 5 10 -36 2 -126 -32 -131 -49 -7 -21 -43 -60 -55 -60 -5 0 -6 8 -3
18 4 9 -8 2 -25 -17 -20 -20 -38 -31 -47 -27 -9 3 -15 0 -15 -9 0 -8 -6 -15
-14 -15 -8 0 -18 -4 -21 -10 -8 -12 23 -1 102 37 52 26 103 33 103 15 0 -4 16
-81 35 -171 19 -90 35 -170 35 -177 0 -8 -27 -26 -60 -41 -33 -14 -59 -27 -57
-30 2 -2 25 6 51 18 26 11 50 18 53 15 5 -5 -119 -66 -133 -66 -2 0 -61 -25
-130 -56 -69 -30 -130 -54 -136 -52 -6 2 39 26 101 52 61 27 110 50 108 52 -3
3 -73 -26 -326 -133 -27 -12 -7 105 29 171 29 51 30 57 12 47 -12 -6 -26 -19
-32 -29 -9 -13 -10 -8 -6 23 3 22 8 78 12 125 l6 85 109 49 c60 27 109 52 110
55 0 3 6 44 13 91 7 47 9 87 4 88 -4 2 -6 7 -3 12 3 4 1 19 -4 32 -6 16 -9 -2
-10 -66 -1 -115 -9 -154 -33 -167 -40 -22 -129 -46 -134 -37 -3 5 -7 60 -8
123 -2 83 0 118 10 125 15 13 22 4 40 -59 14 -46 14 -46 8 -6 -3 22 -11 49
-19 60 -11 17 -10 25 1 48 21 39 11 33 -19 -12 -18 -27 -46 -49 -88 -70 -59
-30 -68 -42 -16 -22 22 9 25 6 35 -27 6 -21 16 -70 22 -111 9 -67 9 -74 -9
-89 -15 -14 -22 -40 -31 -132 -6 -63 -12 -115 -13 -117 -1 -1 -33 27 -70 62
-42 40 -66 69 -61 76 5 8 3 9 -5 5 -7 -5 -18 0 -27 10 -7 11 -4 -3 8 -31 23
-54 30 -182 14 -259 -7 -36 -6 -38 13 -33 12 3 21 1 21 -3 0 -5 21 -24 48 -41
75 -52 81 -69 23 -69 -22 0 -43 -5 -47 -11 -4 -8 10 -10 47 -8 l54 4 3 -67 c3
-53 0 -72 -15 -92 -17 -23 -23 -24 -78 -19 -58 5 -64 3 -175 -53 -94 -48 -116
-64 -120 -84 -3 -20 -6 -15 -11 20 -4 25 -6 -52 -3 -170 7 -327 16 -526 24
-504 4 11 6 33 4 49 -2 17 -6 110 -10 208 -6 163 -6 177 10 177 9 0 14 -4 11
-10 -3 -6 1 -7 9 -4 19 7 21 -7 4 -25 -10 -11 -10 -13 -1 -7 9 5 12 1 11 -11
-3 -39 3 -51 32 -63 26 -11 35 -9 77 12 26 13 63 34 82 46 19 11 38 19 43 16
4 -3 8 -1 8 5 0 10 53 42 66 41 3 -1 14 8 24 20 18 20 18 20 24 -12 3 -18 6
-72 8 -120 1 -58 5 -85 12 -81 6 3 6 0 -1 -7 -7 -7 -9 -25 -6 -40 7 -36 -8
-44 -77 -45 -45 0 -74 -9 -156 -49 -60 -28 -106 -57 -113 -69 -17 -34 -29
-143 -20 -197 17 -107 67 -167 129 -154 19 4 43 7 53 8 9 0 17 4 17 8 0 4 19
18 43 32 l42 26 6 -28 c7 -27 7 -27 8 5 2 50 71 78 71 28 0 -16 4 -23 14 -19
10 4 12 -2 9 -23 -3 -15 -6 -43 -8 -62 -2 -33 -11 -43 -52 -55 -17 -6 -22 -2
-26 16 -4 22 -4 22 -6 -2 -1 -21 -16 -33 -88 -70 -48 -25 -115 -62 -150 -83
-34 -20 -67 -37 -73 -37 -6 0 -8 24 -6 60 2 33 0 60 -5 60 -5 0 -9 -26 -9 -57
-1 -50 -2 -55 -13 -38 -7 12 -14 78 -18 160 l-6 140 1 -137 c1 -107 -2 -135
-11 -125 -9 9 -15 150 -22 517 -6 278 -13 541 -15 585 l-5 80 -67 68 c-66 66
-68 67 -103 57 -61 -17 -89 -13 -93 13 -5 36 -55 35 -114 -4 -50 -33 -82 -59
-54 -44 8 5 12 4 7 0 -4 -5 -15 -10 -25 -11 -70 -10 -103 -18 -107 -24 -2 -4
6 -5 19 -3 26 5 43 -11 25 -23 -8 -5 -9 -3 -4 6 5 8 3 11 -6 8 -8 -3 -14 -10
-14 -17 0 -16 -25 -30 -43 -23 -10 3 -13 1 -8 -6 3 -6 1 -14 -5 -18 -8 -5 -9
-3 -4 6 5 8 3 11 -6 8 -8 -3 -14 -10 -14 -16 0 -5 -4 -14 -9 -19 -5 -5 -6 -3
-2 5 9 15 -10 16 -20 1 -4 -8 -9 -7 -15 2 -7 11 -9 11 -9 -1 0 -8 -34 -36 -75
-62 -80 -52 -95 -58 -74 -30 13 15 12 16 -3 4 -10 -8 -16 -19 -15 -24 1 -6 -4
-13 -12 -16 -9 -3 -11 0 -6 8 5 9 4 11 -4 6 -6 -4 -9 -11 -6 -16 3 -5 -4 -14
-15 -20 -11 -6 -17 -16 -14 -22 4 -7 3 -8 -4 -4 -12 7 -56 -17 -47 -26 3 -2
-2 -5 -10 -5 -8 0 -12 4 -9 9 3 4 -2 5 -10 2 -9 -3 -13 -11 -9 -18 3 -6 3 -8
-2 -4 -14 13 -45 -11 -39 -30 5 -13 4 -14 -4 -3 -8 11 -14 11 -33 0 -34 -18
-259 -169 -259 -173 0 -3 61 34 136 80 75 47 137 84 139 82 4 -3 -216 -145
-273 -176 -20 -12 -23 -12 -17 0 3 7 -1 4 -9 -6 -9 -11 -16 -17 -16 -13 0 4
-54 -29 -119 -73 -66 -44 -122 -76 -126 -71 -6 11 80 70 793 541 292 193 532
356 532 361 0 13 -38 49 -52 49 -18 0 -78 -50 -78 -65 0 -8 -25 -31 -55 -51
-30 -20 -55 -41 -55 -46 0 -5 -4 -6 -10 -3 -6 3 -10 -1 -10 -9 0 -9 -5 -16
-11 -16 -5 0 -7 6 -3 13 5 8 3 8 -9 -2 -9 -7 -14 -17 -11 -22 3 -5 -3 -6 -12
-2 -11 4 -15 2 -11 -4 4 -6 -1 -17 -11 -24 -15 -13 -16 -12 -3 4 7 9 9 17 3
17 -15 0 -33 -26 -24 -35 4 -5 2 -5 -5 -1 -12 6 -93 -38 -93 -50 0 -4 8 0 18
7 14 11 13 10 -2 -9 -20 -23 -32 -30 -21 -12 16 26 -30 -2 -315 -191 -466
-309 -591 -389 -601 -384 -5 4 -7 10 -4 15 10 16 -52 -7 -91 -34 -21 -14 -35
-26 -31 -26 5 0 25 11 45 25 55 38 88 32 72 -11 -11 -28 -66 -51 -90 -37 -15
10 -17 8 -14 -14 1 -14 8 -31 14 -37 10 -8 9 -5 0 13 -6 13 -8 21 -2 17 5 -3
15 -19 21 -35 l12 -29 27 27 c15 14 26 29 25 33 -4 12 27 30 42 24 16 -6 21
-56 6 -56 -17 0 -79 -57 -155 -143 -43 -48 -80 -86 -82 -84 -7 7 -36 249 -31
261 3 7 27 19 53 26 26 8 44 15 38 17 -5 2 -29 -3 -54 -10 l-45 -13 -98 131
c-55 71 -108 139 -118 151 l-20 21 45 17 c24 9 50 24 58 34 12 14 10 14 -12
-1 -29 -20 -59 -22 -95 -5 -32 15 -32 26 3 35 26 7 25 8 -13 13 -46 6 -65 33
-71 104 -4 39 -3 39 6 10 5 -17 18 -38 27 -46 16 -14 22 -14 48 -3 24 11 26
14 9 14 -11 1 -30 11 -41 24 -21 23 -40 79 -25 75 5 -2 24 17 43 41 19 24 50
57 70 73 l36 29 44 -21 44 -21 -3 -94 c-2 -51 2 -120 7 -152 10 -51 9 -60 -6
-70 -15 -12 -15 -13 4 -13 15 0 25 -12 38 -47 23 -62 36 -76 24 -27 -15 67
-12 91 14 98 31 7 104 72 123 108 12 24 18 28 25 17 6 -10 9 -3 9 21 l0 34
-36 -58 c-25 -38 -39 -54 -44 -45 -6 9 -12 6 -21 -10 -16 -24 -29 -28 -29 -7
0 8 -11 13 -27 12 -22 -1 -29 -7 -35 -31 -6 -27 -7 -26 -3 5 11 82 24 153 37
188 l13 37 6 -45 6 -45 1 57 c1 31 4 65 7 75 3 10 -8 -9 -25 -42 -16 -33 -33
-82 -36 -108 -6 -45 -7 -46 -19 -25 -7 14 -12 60 -12 113 1 94 26 193 68 264
11 18 17 36 14 39 -6 6 -5 7 -36 -39 -13 -19 -76 -80 -139 -134 -63 -54 -122
-107 -130 -117 -15 -18 -16 -18 -16 -1 0 10 -3 38 -7 63 -3 25 -3 39 0 31 3
-7 20 25 37 71 41 107 73 163 147 249 71 81 63 91 -13 17 -68 -67 -95 -103
-152 -203 -48 -84 -57 -88 -31 -14 9 24 11 39 5 33 -6 -6 -20 -42 -31 -80 -27
-90 -29 -236 -5 -318 9 -32 15 -60 13 -63 -6 -6 -49 51 -73 97 -28 53 -26 188
4 255 12 28 15 41 7 30 -23 -29 -45 -112 -45 -165 0 -65 24 -139 62 -191 18
-25 38 -53 44 -64 7 -11 18 -19 27 -17 8 1 22 -9 31 -23 20 -31 3 -34 -18 -3
-9 12 -16 18 -16 13 0 -4 -11 2 -25 15 -13 12 -22 27 -18 33 4 6 1 7 -7 2 -8
-5 -21 3 -36 21 -13 16 -23 24 -24 17 0 -6 28 -37 62 -67 l62 -56 -135 6
c-171 9 -174 10 -177 67 -1 29 4 49 13 57 8 7 14 27 14 44 -1 17 -3 23 -6 14
-5 -22 -5 -22 -47 -4 -29 12 -43 11 -130 -10 -89 -22 -101 -23 -144 -11 -42
13 -48 18 -57 52 -6 20 -19 41 -28 46 -16 9 -17 -8 -17 -255 l0 -264 92 -6
c51 -3 221 -10 378 -16 157 -6 335 -15 397 -22 l111 -11 11 -61 c14 -83 29
-210 33 -271 l3 -50 -50 -17 c-27 -9 -66 -19 -85 -23 l-35 -6 3 81 c3 57 0 80
-7 75 -6 -3 -11 -40 -11 -87 l0 -81 -232 7 c-128 3 -315 6 -415 7 -161 1 -182
3 -186 17 -3 9 -4 -41 -4 -113 2 -128 2 -129 27 -137 24 -7 24 -8 -2 -4 l-28
3 0 -1063 0 -1064 934 0 934 0 7 90 c8 100 26 143 71 171 l30 19 0 -83 c-1
-45 2 -100 6 -122 7 -37 5 -42 -20 -58 -26 -16 -22 -16 128 -17 l156 0 17 29
c9 15 14 31 12 35 -3 3 -2 4 2 1 3 -3 13 1 22 8 8 6 3 -4 -12 -24 -15 -20 -27
-39 -27 -42 0 -4 214 -7 475 -7 418 0 479 2 500 16 13 9 30 12 36 8 7 -4 9 -3
5 4 -8 13 28 35 39 24 5 -4 6 -2 3 3 -3 6 65 54 151 108 86 54 185 116 221
139 36 22 62 37 57 33 -4 -5 -22 -26 -40 -48 -17 -22 -44 -53 -58 -71 -28 -34
-44 -82 -30 -90 12 -8 33 19 23 29 -4 5 -1 5 6 1 17 -10 14 -13 -77 -86 -44
-36 -78 -66 -76 -69 3 -2 11 1 19 8 11 9 15 9 18 -1 5 -14 65 26 182 121 38
31 103 83 146 116 196 152 238 185 275 219 22 20 43 36 46 36 4 0 19 -19 35
-41 l28 -42 -49 -44 -50 -45 49 36 c27 20 52 36 56 36 3 0 48 -59 99 -131 l93
-130 -28 -32 -29 -32 31 28 31 28 39 -56 c31 -46 36 -58 24 -65 -9 -6 200 -10
527 -10 l542 0 -45 98 -44 99 29 64 c28 60 111 158 111 130 0 -6 30 -76 66
-155 52 -112 73 -146 96 -159 25 -14 29 -22 26 -47 l-5 -30 609 0 c339 0 608
4 608 9 0 9 -84 204 -100 233 -14 25 -12 38 6 38 11 0 15 -6 11 -20 -3 -12 0
-20 8 -20 7 0 25 -24 41 -54 16 -30 33 -52 38 -49 5 3 6 1 2 -5 -4 -6 7 -38
24 -72 22 -43 36 -60 50 -60 19 0 18 5 -16 71 -21 43 -43 73 -55 76 -10 3 -19
10 -19 15 0 6 6 8 14 5 9 -4 5 8 -10 30 -28 41 -31 58 -9 49 11 -4 8 4 -7 25
-14 18 -30 28 -41 27 -15 -2 -25 11 -46 64 -14 36 -29 69 -32 73 -7 6 -89 -27
-135 -56 l-32 -19 40 -101 c22 -56 38 -103 35 -105 -2 -3 -12 17 -22 43 -36
95 -107 247 -142 302 -106 169 -251 241 -366 182 -32 -16 -39 -17 -43 -5 -2 8
-6 21 -9 29 -3 11 3 15 21 15 13 0 27 7 31 15 3 9 19 23 35 31 24 12 29 20 23
37 -16 53 -22 130 -15 198 4 40 6 78 3 86 -8 21 -41 15 -104 -18 -33 -18 -62
-30 -65 -27 -7 7 185 141 202 141 7 0 11 4 8 9 -5 8 11 12 31 8 6 -1 7 2 3 6
-13 12 123 98 140 88 7 -5 28 -41 46 -80 32 -67 32 -71 12 -67 -14 3 -48 -16
-98 -53 l-78 -56 17 -31 c8 -17 62 -139 119 -270 57 -132 119 -266 137 -298
l34 -59 70 35 c39 19 75 41 80 48 7 8 -25 86 -103 252 -134 286 -123 263 -130
248 -3 -7 -14 -13 -24 -13 -20 0 -36 46 -26 78 4 10 2 39 -3 65 -4 26 -6 47
-2 47 30 0 78 -86 328 -585 l278 -555 416 0 417 1 -2 29 c0 15 -5 26 -9 23
-38 -23 246 313 314 372 l23 20 -17 -24 c-10 -16 -14 -34 -10 -50 8 -37 22
-49 33 -31 5 8 10 11 10 6 0 -16 -152 -198 -228 -273 l-72 -71 46 0 c50 0 50
0 129 98 28 35 92 113 143 174 51 61 101 120 110 131 65 77 67 80 47 66 -11
-8 3 7 30 33 28 27 41 42 30 35 -11 -7 -2 5 20 27 41 40 120 135 120 144 1 3
13 19 28 35 25 27 98 114 202 239 22 26 39 52 38 56 -1 4 13 20 33 35 19 14
32 30 30 34 -3 4 7 20 22 34 27 26 28 26 41 6 7 -12 8 -18 2 -14 -19 11 -12
-3 12 -26 12 -12 15 -19 7 -15 -8 4 -4 -1 9 -12 21 -17 22 -22 11 -43 -7 -13
-49 -64 -92 -114 l-80 -90 93 98 c52 54 98 97 102 97 5 0 5 -4 2 -10 -3 -5 -1
-10 5 -10 6 0 8 -4 5 -10 -3 -5 -1 -10 4 -10 6 0 11 -7 11 -15 0 -8 5 -15 11
-15 5 0 7 -4 4 -10 -3 -5 -2 -10 2 -10 5 0 14 -14 20 -31 12 -30 11 -32 -137
-197 -82 -91 -148 -168 -145 -170 3 -3 15 8 27 24 33 41 268 304 273 304 12 0
85 -142 79 -153 -4 -6 -53 -68 -109 -137 -97 -120 -138 -175 -103 -140 8 8 61
72 118 142 56 70 106 125 110 123 5 -3 25 -35 45 -71 35 -63 36 -66 20 -90 -9
-14 -14 -28 -12 -31 3 -2 10 5 17 16 6 12 14 21 19 21 4 0 22 -26 38 -57 l31
-58 -92 -155 c-116 -195 -158 -271 -152 -277 4 -4 58 84 162 267 26 47 63 107
81 134 18 26 33 52 33 57 0 26 17 3 28 -35 11 -43 10 -47 -47 -173 -32 -70
-72 -156 -90 -190 l-31 -63 242 4 c277 5 377 17 213 27 l-100 6 105 1 c58 0
181 1 273 1 100 1 166 5 162 10 -3 5 3 12 12 14 10 3 -38 6 -107 8 l-125 2
100 8 c55 4 170 12 255 18 85 6 175 13 200 17 l45 7 -40 12 -40 12 60 -4 c59
-4 63 -3 225 80 91 46 197 106 235 132 39 26 113 69 165 95 52 27 136 73 185
104 137 84 204 122 366 204 l149 75 0 188 0 188 -87 -5 c-102 -5 -87 10 20 21
l67 7 0 245 c0 223 -1 245 -16 239 -9 -4 -31 -4 -49 0 l-33 6 31 30 c30 28 31
29 7 22 -13 -4 -69 -29 -124 -55 -54 -27 -106 -49 -113 -49 -8 0 -11 -4 -8
-10 4 -6 26 -1 58 11 67 27 102 35 94 22 -10 -17 -255 -110 -362 -139 -54 -14
-144 -45 -200 -69 -55 -24 -104 -41 -108 -38 -5 3 10 14 32 24 23 10 41 21 41
25 0 15 -98 -4 -151 -29 -66 -32 -84 -34 -49 -7 18 14 21 20 9 20 -9 0 -31 7
-49 16 -25 13 -44 15 -89 8 -70 -10 -270 -11 -333 0 -46 7 -67 26 -30 26 9 1
28 7 41 14 l24 14 -21 6 c-12 4 -31 5 -42 1 -17 -5 -167 18 -210 33 -8 3 -24
4 -36 3 -40 -4 -289 51 -341 76 -142 66 -345 71 -588 13 -75 -18 -308 -49
-401 -54 -22 -1 -56 -12 -76 -24 -19 -12 -42 -22 -50 -22 -8 0 -20 -6 -28 -13
-8 -6 -5 0 8 14 12 14 86 70 163 125 78 54 180 128 227 163 47 35 133 95 191
133 59 39 113 76 122 84 14 12 18 12 32 -4 16 -17 16 -20 -6 -39 -12 -11 -111
-80 -219 -153 -109 -73 -195 -136 -192 -141 2 -4 -6 -13 -18 -19 -22 -11 -22
-10 -4 4 23 18 14 21 -15 5 -11 -5 -16 -15 -13 -21 4 -6 3 -8 -4 -4 -10 6
-146 -74 -138 -81 2 -3 30 12 61 33 47 31 64 37 103 36 26 -1 83 4 127 12 44
8 67 14 50 15 -44 2 -15 17 61 32 35 7 61 16 59 20 -3 4 14 14 37 24 40 16
103 15 162 -2 50 -14 -41 -44 -191 -64 -51 -6 -93 -14 -93 -17 0 -2 21 -1 48
3 26 4 141 10 255 14 149 4 210 10 215 18 17 27 93 26 167 -2 162 -61 241 -81
563 -140 69 -13 100 -14 122 -6 20 6 30 6 30 0 0 -5 6 -9 13 -8 6 1 37 -2 67
-7 l55 -9 -50 -5 c-50 -5 -50 -5 52 -25 97 -20 102 -20 123 -3 12 10 18 18 14
18 -5 0 4 11 19 25 15 14 27 30 27 35 0 6 10 10 23 10 25 0 209 87 266 126
l36 24 -55 1 c-30 0 -64 3 -75 5 -11 3 -44 5 -74 5 -37 0 -50 4 -40 10 8 5 10
9 4 9 -5 0 3 7 19 15 16 9 31 13 34 10 3 -3 0 -5 -6 -5 -7 0 -12 -5 -12 -11 0
-6 7 -8 16 -5 8 3 12 2 9 -4 -3 -6 -2 -10 4 -10 5 0 15 8 20 18 6 9 11 14 11
9 0 -4 16 -1 35 7 22 10 68 15 127 14 73 0 103 4 138 20 43 20 44 21 15 22
-16 0 -78 3 -136 6 -73 4 -109 3 -113 -5 -4 -6 -27 -11 -51 -11 -24 0 -46 -4
-49 -8 -3 -5 -41 -7 -85 -4 -66 3 -81 1 -81 -11 0 -13 -29 -24 -114 -42 -55
-12 -514 -17 -533 -6 -11 6 -13 11 -5 11 7 0 11 4 8 8 -6 9 -1 10 139 17 163
8 293 24 315 37 11 7 19 20 17 28 -1 9 7 16 21 18 15 2 22 10 21 25 -1 19 -2
19 -6 3 -4 -14 -11 -17 -34 -12 -15 3 -44 -1 -64 -9 -33 -15 -51 -31 -20 -19
11 5 13 2 9 -10 -6 -16 -44 -23 -44 -8 0 9 -496 8 -530 -2 -89 -25 -280 -22
-280 4 0 6 -5 10 -11 10 -6 0 -17 7 -25 15 -9 8 -11 15 -5 15 6 0 11 5 11 10
0 6 -8 10 -18 10 -10 0 -27 6 -37 14 -14 10 -25 11 -39 4 -14 -7 -17 -7 -11 2
5 7 1 11 -11 10 -11 -1 -43 -2 -71 -1 -40 1 -53 5 -53 16 0 9 -7 18 -16 22 -8
3 -13 11 -10 19 3 8 -5 14 -21 16 -27 3 -40 32 -21 45 7 4 8 1 4 -8 -4 -8 -1
-6 7 4 10 12 35 19 82 24 l68 6 -39 15 c-22 9 -42 20 -45 25 -3 5 -9 8 -13 8
-23 -3 -28 0 -19 12 6 6 13 24 17 38 6 26 8 27 116 34 60 4 110 11 110 15 0 8
-211 22 -219 14 -3 -3 0 -9 8 -13 9 -6 7 -10 -8 -14 -12 -3 -23 -1 -26 4 -3 4
-12 6 -19 3 -16 -6 -31 29 -21 46 3 5 1 10 -6 10 -7 0 -9 -10 -6 -27 5 -24 4
-26 -8 -10 -12 16 -13 16 -18 -5 -4 -15 -10 -19 -16 -13 -7 7 -7 23 1 48 9 28
14 34 24 26 10 -8 11 -5 1 20 l-11 30 -20 -63 c-12 -35 -29 -74 -38 -87 -14
-21 -14 -15 3 50 10 41 19 88 18 105 0 17 -8 -6 -18 -51 -9 -45 -21 -86 -25
-90 -5 -5 -6 1 -2 12 4 11 9 54 11 95 2 46 1 61 -3 37 -9 -51 -25 -51 -36 1
-5 23 -15 42 -22 42 -19 0 -28 20 -15 33 16 16 14 44 -5 51 -11 4 -13 13 -9
27 6 17 4 21 -8 16 -9 -3 -18 1 -21 10 -4 11 -2 14 9 9 8 -3 15 -4 15 -3 0 7
-32 152 -34 154 -1 1 -12 0 -25 -4 -21 -5 -22 -10 -17 -57 l5 -51 -13 50 c-8
28 -14 45 -15 38 0 -7 -7 -10 -15 -7 -10 4 -16 -5 -21 -26 -4 -17 -4 -34 -1
-37 3 -4 6 2 7 13 0 12 4 8 10 -11 5 -16 7 -43 3 -60 -4 -24 -3 -27 6 -15 9
12 10 5 6 -30 -4 -32 -3 -39 3 -25 9 19 10 19 10 -2 1 -17 -18 -35 -76 -75
-43 -28 -72 -44 -64 -35 19 24 7 26 -129 29 l-115 3 70 53 c39 29 98 74 133
100 42 31 57 48 46 50 -11 3 -14 11 -10 26 5 20 2 22 -25 18 -29 -4 -30 -3
-20 16 14 25 15 74 2 53 -5 -8 -16 -11 -26 -7 -11 4 -30 -4 -53 -22 -69 -54
-66 -58 -58 74 4 65 8 126 9 134 1 8 -2 17 -7 20 -6 3 -11 -51 -13 -135 l-3
-140 -43 -37 c-23 -21 -48 -38 -55 -38 -8 0 -30 36 -50 80 -20 44 -40 80 -44
80 -4 0 -3 -12 2 -26 12 -31 12 -34 1 -34 -5 0 -12 11 -15 24 -3 13 -9 31 -12
40 -4 11 -1 16 11 16 11 0 15 5 11 15 -3 8 0 15 7 15 9 0 9 2 0 8 -16 10 -33
97 -33 166 0 28 -3 62 -7 76 l-7 25 -7 -25 c-5 -19 -7 -13 -8 24 -1 32 4 53
13 60 11 8 15 44 17 153 2 78 -1 146 -6 150 -4 4 -5 3 -1 -4 3 -7 -1 -13 -11
-15 -12 -2 -26 9 -40 32 -26 41 -28 50 -9 50 11 0 12 8 5 38 -9 38 -11 116 -3
96 3 -7 28 10 57 39 l51 50 14 -69 c24 -126 63 -233 99 -276 28 -34 33 -47 28
-72 -6 -30 -5 -29 12 7 l18 37 35 -18 c28 -16 37 -28 47 -66 17 -66 24 -78 19
-31 -3 22 -2 32 0 23 3 -9 15 -18 27 -20 13 -2 21 -9 19 -17 -2 -11 0 -12 11
-2 12 10 17 1 27 -55 9 -46 15 -62 22 -52 6 8 7 1 3 -22 -5 -26 -4 -31 4 -20
9 12 11 9 13 -15 3 -56 4 -60 12 -73 4 -7 5 -16 2 -19 -3 -3 -1 -12 5 -19 6
-8 9 -20 6 -29 -4 -8 -1 -17 4 -21 6 -3 9 -15 6 -25 -3 -11 -1 -19 4 -19 5 0
9 7 9 16 0 10 6 14 15 10 11 -4 15 1 15 17 0 18 2 19 10 7 5 -8 10 -10 10 -5
0 6 7 1 15 -9 18 -24 19 -43 -5 215 -27 300 -58 656 -72 832 -7 81 -16 147
-21 147 -5 0 -7 -12 -4 -27 4 -24 4 -25 -7 -10 -7 9 -17 13 -21 9 -4 -4 -5 3
-2 16 6 25 4 26 -25 11 -18 -10 -20 -9 -15 5 3 8 1 18 -5 22 -6 4 -8 3 -5 -2
3 -6 2 -16 -4 -24 -5 -8 -9 -10 -9 -5 0 6 -21 9 -47 8 -27 -2 -43 0 -37 3 7 3
10 13 7 22 -2 10 10 38 28 62 l32 45 -40 -38 c-23 -22 -39 -47 -39 -59 1 -15
-7 -23 -25 -28 -15 -4 -36 -17 -48 -29 -11 -11 -27 -21 -33 -21 -7 1 -2 7 12
15 30 17 24 19 -19 4 -17 -6 -31 -16 -31 -22 -1 -30 -20 30 -50 158 -18 77
-41 172 -51 210 l-19 70 6 -70 c3 -38 24 -143 45 -231 37 -151 38 -164 24
-196 -8 -20 -17 -65 -21 -102 -4 -36 -13 -71 -20 -77 -21 -17 -17 -34 4 -18
15 13 16 12 3 -3 -7 -10 -17 -16 -21 -13 -4 3 -28 -20 -53 -50 l-45 -55 -5
222 c-3 123 -9 239 -12 259 -7 35 -5 38 37 67 l44 30 3 156 c2 141 1 156 -15
156 -15 0 -16 -14 -13 -147 l4 -147 -50 -38 -50 -38 -6 -72 c-7 -77 -24 -128
-44 -128 -7 0 -20 -9 -30 -20 -23 -26 -8 -26 25 0 30 24 50 25 50 4 0 -9 -5
-12 -12 -8 -10 6 -10 4 0 -7 14 -16 17 -113 2 -104 -5 3 -10 1 -10 -4 0 -6 5
-11 10 -11 6 0 10 -7 10 -16 0 -8 -5 -12 -10 -9 -6 3 -22 -3 -36 -14 -15 -12
-33 -21 -40 -21 -8 0 -14 -6 -14 -13 0 -7 -9 -23 -20 -35 -11 -12 -25 -33 -30
-48 -6 -15 -13 -25 -16 -22 -2 3 1 18 7 34 6 16 15 40 19 54 7 24 6 25 -26 22
-19 -2 -34 -10 -34 -16 0 -7 -7 -21 -15 -32 -14 -18 -14 -17 -5 9 15 41 12 55
-6 29 -18 -26 -36 -29 -27 -4 5 15 4 15 -8 1 -29 -33 -209 -71 -291 -62 -63 7
-73 14 -83 56 -4 17 -9 26 -12 20 -7 -19 -33 -16 -34 5 0 14 -2 14 -9 -3 -5
-11 -9 -15 -9 -8 -1 6 -10 9 -21 6 -19 -5 -20 -6 -3 -19 10 -7 30 -14 45 -14
30 0 46 -22 52 -70 4 -34 -9 -39 -31 -12 -13 16 -14 15 -10 -5 7 -31 -5 -29
-43 7 -19 18 -30 36 -26 45 3 8 1 15 -4 15 -6 0 -10 -7 -10 -15 0 -19 -10 -19
-38 1 -12 8 -26 13 -31 10 -5 -3 -14 1 -20 8 -7 8 -31 18 -54 21 -54 9 -104
40 -122 75 -8 16 -15 54 -15 85 0 67 -16 73 -23 8 -7 -61 -5 -93 5 -87 4 3 8
-6 8 -19 0 -23 -81 -117 -101 -117 -4 0 -11 -17 -14 -37 -3 -21 -9 -49 -12
-63 -5 -23 -6 -24 -13 -5 -6 14 -9 16 -10 5 -2 -8 -2 -18 -1 -22 0 -5 -3 -8
-9 -8 -5 0 -10 5 -10 12 0 6 -3 8 -7 4 -5 -4 -8 -13 -8 -19 0 -18 -40 -20 -55
-2 -10 12 -10 15 3 15 8 0 18 -6 20 -12 3 -7 6 -4 6 6 1 11 4 16 8 13 3 -4 12
-2 20 4 7 6 13 8 13 3 0 -5 7 2 16 14 11 16 12 27 5 39 -10 17 -10 16 -11 -2
-1 -19 -1 -19 -14 -2 -18 23 -25 22 -19 -3 7 -25 -12 -26 -27 -2 -11 16 -11
16 -6 0 7 -25 -40 -37 -57 -15 -7 9 -32 18 -57 21 -25 3 -61 10 -80 16 -47 14
-186 10 -233 -6 -21 -8 -41 -13 -45 -12 -4 1 -25 -6 -46 -15 -22 -10 -45 -16
-51 -13 -7 2 -18 0 -26 -5 -10 -6 -10 -9 -1 -9 6 0 12 -7 12 -16 0 -8 4 -13 9
-10 5 3 8 -11 6 -31 -1 -21 -1 -30 2 -20 4 18 5 18 18 0 14 -17 14 -17 15 0 0
10 5 15 10 12 14 -9 13 8 -2 23 -9 9 -7 13 8 18 10 4 22 12 25 16 7 11 90 -42
141 -90 40 -38 90 -49 109 -25 8 9 8 13 0 13 -6 0 -11 5 -11 10 0 7 6 7 20 0
15 -8 27 -7 49 5 56 28 69 22 77 -42 5 -32 7 -72 6 -89 -5 -54 16 -110 74
-194 l55 -80 -40 0 c-23 0 -41 4 -41 9 0 13 -73 -8 -86 -25 -9 -12 -15 -11
-34 6 -13 11 -31 18 -41 15 -22 -7 -157 21 -175 36 -10 8 -14 8 -14 0 0 -17
-19 -13 -37 9 -16 18 -18 19 -24 4 -4 -13 -21 -18 -70 -21 -35 -2 -80 -12 -99
-21 l-36 -17 7 55 c4 30 10 64 14 75 6 18 5 18 -7 -1 -10 -17 -18 -20 -34 -14
-20 8 -21 14 -16 82 2 40 7 90 11 110 l6 37 47 -21 c43 -18 47 -23 43 -47 -3
-14 -3 -21 0 -15 7 14 45 6 45 -9 0 -8 3 -8 11 0 7 7 7 17 1 29 -11 22 -28 63
-35 84 -3 8 -6 0 -6 -17 -1 -18 -3 -33 -5 -33 -2 0 -29 9 -59 21 -48 18 -56
25 -61 53 -4 18 -3 47 0 66 l7 33 -34 -7 c-18 -3 -50 -19 -70 -35 l-36 -29
-40 18 c-22 10 -51 21 -64 24 -13 3 1 -5 30 -19 30 -14 57 -27 59 -30 4 -4
-116 -125 -124 -125 -10 0 -2 29 11 40 19 16 20 40 1 40 -7 0 -25 -9 -40 -21
-31 -24 -32 -17 -10 63 9 32 22 58 29 58 6 0 12 6 12 14 0 8 19 44 42 80 45
69 71 78 71 24 0 -36 40 -78 74 -78 38 0 76 18 76 35 0 10 5 13 13 9 6 -4 9
-4 5 0 -4 5 -3 19 2 32 13 34 3 56 -20 44 -25 -13 -30 -13 -30 5 0 18 -9 19
-33 1 -19 -14 -7 -33 13 -21 6 3 10 -1 10 -9 0 -24 -20 -29 -39 -12 -13 12
-19 32 -19 71 0 50 1 54 18 45 25 -13 30 -13 30 5 0 8 -9 15 -20 15 -11 0 -20
5 -20 10 0 6 5 10 11 10 5 0 8 3 5 8 -2 4 16 32 40 61 54 65 49 83 -6 21 -22
-25 -39 -40 -40 -33 0 7 9 17 20 23 11 6 20 19 20 30 0 12 10 21 30 25 17 4
41 18 53 31 12 13 34 25 47 25 31 2 106 -31 167 -72 25 -18 43 -26 38 -20 -6
10 -3 11 14 2 11 -7 21 -14 21 -17 0 -3 -4 -3 -8 0 -4 2 -8 -4 -8 -14 0 -13 4
-16 12 -9 8 6 16 4 25 -7 17 -21 87 -54 114 -53 11 0 2 6 -20 13 -50 15 -91
42 -100 63 -3 9 -3 37 1 62 l7 46 22 -49 21 -49 13 57 c7 31 16 56 19 56 4 0
27 -39 52 -87 l44 -88 19 88 c13 55 25 87 33 87 14 0 88 -103 103 -142 6 -16
11 -3 20 58 13 80 25 114 40 114 4 0 25 -25 46 -56 31 -45 36 -57 24 -65 -8
-5 -18 -9 -24 -9 -5 0 -19 -8 -30 -16 -19 -16 -19 -16 5 -9 24 7 72 27 158 66
23 10 50 19 60 20 9 0 12 3 5 5 -7 3 -44 -6 -84 -21 l-72 -26 7 47 c3 26 6 58
6 71 0 43 28 39 81 -13 27 -26 49 -43 49 -37 0 23 -22 118 -29 126 -4 4 -32
-5 -62 -21 -85 -45 -309 -98 -309 -74 0 19 100 110 156 142 82 46 131 56 177
37 24 -10 42 -27 50 -45 13 -31 122 -136 111 -108 -3 9 -2 16 4 16 15 0 102
-74 102 -87 0 -27 43 -93 60 -93 19 0 43 -23 35 -34 -3 -3 1 -2 7 4 27 23 109
-3 123 -37 2 -8 1 -12 -4 -9 -8 5 -51 -29 -51 -41 0 -3 8 1 18 10 24 22 91 34
240 43 101 6 122 4 122 -7 0 -12 2 -12 9 0 10 16 31 6 31 -14 0 -8 5 -17 10
-20 6 -4 9 6 8 26 -2 26 1 34 17 37 29 6 45 22 45 43 0 11 4 19 9 19 5 0 5 15
1 36 -18 77 24 518 65 692 l6 23 20 -23 c44 -49 1 12 -79 115 -46 60 -94 127
-107 150 -12 23 -27 42 -35 42 -7 0 -26 -46 -47 -115 -18 -63 -51 -171 -73
-240 -21 -69 -62 -202 -90 -295 -50 -166 -76 -222 -98 -214 -6 2 24 102 74
244 48 136 79 242 74 245 -6 3 -1 22 11 44 11 21 19 45 17 54 -2 10 20 80 48
157 43 115 49 141 38 148 -16 9 -52 1 -74 -18 -9 -8 -75 -17 -165 -24 -269
-21 -254 -17 -276 -65 -11 -22 -26 -50 -34 -60 -14 -19 -16 -18 -72 7 -88 39
-171 51 -219 32 -68 -28 -88 -38 -116 -63 -14 -13 -30 -24 -35 -24 -4 1 -7 -5
-7 -13 1 -8 -3 -13 -8 -12 -6 1 -19 -15 -30 -36 -11 -21 -34 -45 -50 -53 -16
-8 -47 -33 -69 -55 -23 -23 -42 -39 -44 -37 -2 2 47 83 109 179 124 193 134
209 119 194 -31 -33 -243 -358 -243 -373 0 -5 -11 -14 -24 -20 -14 -6 -32 -23
-42 -37 -9 -14 -26 -25 -38 -25 -13 0 -32 -11 -45 -24 -12 -12 -40 -28 -62
-35 -22 -7 -57 -27 -77 -45 -20 -18 -52 -38 -71 -44 -19 -7 -49 -23 -67 -37
-18 -14 -42 -25 -54 -25 -37 0 -61 -20 -86 -73 l-24 -52 33 -3 c54 -4 77 -12
77 -25 0 -9 -105 -37 -317 -86 -175 -40 -406 -93 -513 -118 -183 -42 -222 -54
-208 -68 3 -4 192 37 419 90 228 53 453 105 502 116 48 12 93 18 100 16 8 -4
7 -6 -3 -6 -16 -1 -108 -130 -113 -158 -1 -10 -7 -25 -12 -33 -5 -8 -8 -27 -6
-42 2 -25 -1 -28 -27 -28 -29 0 -42 14 -42 45 0 7 16 30 35 51 19 21 35 42 35
48 0 9 11 22 65 78 17 17 23 28 14 25 -9 -3 -37 -8 -62 -12 -31 -5 -44 -11
-41 -20 3 -7 -2 -15 -10 -18 -9 -4 -16 -14 -16 -23 0 -10 -7 -25 -15 -34 -8
-9 -16 -29 -17 -44 -1 -15 -8 -32 -15 -38 -22 -18 -15 -45 19 -73 22 -19 38
-25 55 -20 19 4 23 2 23 -19 0 -14 -13 -40 -28 -58 -68 -80 -102 -139 -136
-240 -20 -58 -36 -121 -36 -139 0 -30 -1 -31 -18 -16 -29 26 -34 20 -7 -8 15
-14 25 -36 25 -53 0 -15 7 -37 15 -48 8 -10 15 -22 15 -26 0 -12 -64 13 -77
30 -12 14 -13 14 -13 -2 0 -18 44 -68 70 -79 25 -10 -9 -30 -122 -71 -57 -21
-114 -48 -128 -61 -54 -48 -190 -155 -197 -155 -4 0 23 28 60 61 37 34 66 64
63 66 -12 13 -144 -90 -293 -228 -29 -27 -53 -44 -53 -39 0 19 67 86 165 163
98 78 99 93 4 36 -48 -28 -94 -73 -152 -150 -60 -79 -66 -90 -60 -125 4 -25 2
-34 -9 -34 -25 0 -52 26 -45 43 3 9 2 19 -3 22 -19 12 -10 25 13 20 18 -5 28
0 40 19 20 30 22 40 5 30 -7 -4 -8 -3 -4 5 4 6 12 9 17 6 5 -4 9 -2 9 4 0 6
12 22 27 36 l28 25 -24 22 c-13 13 -21 18 -18 12 5 -8 -16 -13 -64 -16 -75 -6
-141 4 -147 21 -2 6 -14 26 -27 46 -19 27 -21 35 -9 35 12 0 13 4 3 22 -12 21
-12 22 -28 2 -9 -10 -23 -20 -31 -22 -8 -2 -34 -19 -58 -39 -23 -19 -50 -36
-60 -38 -9 -2 -51 15 -92 36 -60 32 -68 34 -42 14 l32 -27 -25 -30 c-14 -16
-25 -36 -25 -44 0 -17 -41 -19 -59 -1 -11 10 -13 10 -7 0 10 -18 -9 -16 -24 2
-7 8 -17 15 -23 15 -5 0 -26 12 -45 27 -31 23 -97 40 -85 21 2 -5 12 -8 22 -8
10 0 26 -9 36 -20 18 -20 17 -20 -42 -20 -39 0 -66 -5 -79 -16 -19 -15 -19
-16 1 -8 11 4 61 9 110 10 68 2 80 1 50 -6 -22 -4 -71 -15 -110 -24 l-70 -16
57 6 57 5 -20 -51 c-11 -28 -28 -104 -39 -168 -23 -135 -23 -132 -10 -112 8
13 12 12 29 -7 l20 -21 -27 -5 c-15 -3 -29 -2 -32 2 -3 4 -20 -13 -38 -38 -33
-46 -33 -46 -3 -13 27 28 71 47 57 23 -3 -4 6 -6 20 -3 19 3 22 7 12 13 -8 6
4 9 33 9 25 0 73 3 106 6 l61 7 37 -67 37 -66 -50 -58 c-43 -49 -97 -102 -260
-256 -27 -26 -34 -28 -42 -16 -5 8 -10 18 -10 23 0 4 -35 43 -77 87 l-76 81
38 39 c35 36 39 38 52 22 9 -12 8 -5 -3 22 -8 21 -13 45 -9 54 3 8 -12 -1 -33
-20 -79 -72 -176 -130 -322 -194 -78 -35 -84 -45 -10 -19 64 23 66 19 19 -32
-25 -27 -60 -67 -78 -90 -33 -41 -84 -68 -176 -92 -64 -17 -75 -15 -75 18 0
84 28 112 150 153 50 17 51 18 18 15 -21 -2 -39 1 -41 6 -2 6 -17 5 -37 -2
-19 -6 -81 -22 -137 -35 -124 -30 -277 -94 -347 -145 -28 -21 -132 -87 -231
-147 -475 -285 -747 -488 -825 -614 -45 -72 -55 -84 -41 -46 52 135 284 449
454 615 31 30 54 58 52 62 -3 4 3 13 12 20 12 10 14 10 9 2 -15 -26 8 -11 93
61 136 115 160 127 225 120 105 -13 98 -35 -33 -99 -44 -21 -79 -40 -77 -43 2
-2 30 10 62 26 33 16 88 42 124 57 36 15 72 33 81 41 8 8 26 14 39 14 45 0 12
10 -51 16 -83 7 -88 14 -11 16 94 2 96 2 107 11 6 5 60 41 120 80 61 40 139
94 174 119 35 26 69 45 74 41 6 -3 7 -1 3 5 -6 11 27 36 36 27 3 -3 20 14 38
37 l34 42 -78 -58 c-43 -32 -79 -56 -80 -54 -7 9 -40 145 -38 155 3 14 -64
114 -85 126 -19 11 -16 28 12 62 16 20 25 25 26 15 0 -8 5 -1 10 16 9 32 80
105 200 204 105 87 210 129 333 131 62 2 66 3 31 9 l-40 7 36 2 c47 1 54 -7
27 -36 -12 -12 -18 -26 -14 -30 4 -5 33 -11 64 -14 l57 -6 -63 -2 c-35 0 -61
-5 -58 -9 5 -8 -107 -162 -157 -215 -16 -18 -29 -46 -33 -73 -7 -48 -57 -138
-107 -195 -18 -19 -12 -14 13 11 25 26 67 85 94 131 27 46 77 125 110 176 34
50 70 106 81 125 23 37 25 37 170 25 l80 -6 -65 13 c-63 13 -64 14 -20 14 25
0 68 -3 95 -6 48 -7 51 -6 70 23 12 17 26 31 33 31 7 1 19 2 28 3 12 1 15 9
11 41 -5 46 1 56 19 32 8 -10 7 0 -4 25 -9 22 -19 40 -23 38 -3 -2 -16 17 -28
43 -17 33 -26 77 -32 152 -5 58 -14 152 -19 209 -5 57 -7 108 -4 113 4 5 24
-9 45 -31 32 -33 47 -41 74 -41 33 0 35 -2 36 -32 l2 -33 6 34 c4 21 14 37 26
42 12 5 2 6 -25 2 -42 -5 -48 -2 -89 36 -24 23 -48 41 -51 41 -4 0 -13 7 -20
15 -7 8 -22 15 -34 15 -12 0 -32 9 -44 20 -28 27 -28 36 0 16 30 -21 74 -20
127 4 53 25 65 25 57 3 -4 -11 2 -8 14 7 11 14 20 28 20 31 0 3 22 20 50 38
27 18 52 36 55 42 10 16 -47 -13 -130 -68 -44 -28 -81 -48 -83 -44 -7 19 43
125 83 178 87 116 128 155 162 156 22 1 29 5 22 13 -13 16 10 32 84 60 34 13
57 23 50 23 -70 3 -292 -149 -371 -254 l-23 -30 7 35 6 35 -21 -19 c-19 -17
-21 -18 -21 -2 0 9 -4 14 -10 11 -14 -9 -13 -3 10 49 12 29 15 46 8 46 -6 0
-3 9 7 20 26 28 10 25 -33 -7 -32 -24 -35 -25 -17 -4 67 78 255 164 385 176
36 3 76 8 88 11 15 3 21 1 17 -6 -3 -5 -21 -10 -38 -11 -18 0 -41 -4 -52 -8
-14 -6 -3 -8 32 -8 56 1 77 -8 53 -23 -12 -8 -11 -10 7 -10 12 0 30 -3 40 -6
15 -5 15 -4 3 5 -13 9 -13 11 0 11 13 0 13 1 0 10 -24 16 8 32 55 27 l40 -5
-35 16 c-51 24 -223 20 -316 -5 -118 -33 -270 -121 -360 -210 -82 -80 -64 -43
25 51 61 64 14 39 -100 -53 -65 -53 -33 -6 65 98 44 47 73 80 64 72 -10 -7
-18 -11 -18 -7 0 11 85 60 165 94 89 38 219 64 280 57 22 -2 69 -7 104 -10
l65 -5 -24 25 c-27 29 -39 34 -19 8 13 -16 12 -17 -3 -5 -9 8 -15 19 -12 26 3
7 -3 19 -13 27 -17 13 -17 13 -3 -6 11 -16 11 -17 0 -8 -8 7 -15 19 -16 27 -3
23 -105 156 -115 150 -10 -6 -5 -19 19 -47 8 -9 13 -19 11 -20 -2 -2 -37 -24
-78 -50 -94 -59 -107 -61 -75 -12 9 14 14 25 11 25 -3 0 -15 -16 -27 -36 -13
-20 -28 -33 -36 -30 -8 3 -11 0 -8 -8 3 -7 -4 -20 -15 -30 -19 -17 -22 -17
-44 -3 -22 14 -30 48 -14 63 11 11 8 52 -4 59 -17 11 -24 -3 -23 -46 1 -40 1
-40 -20 -22 -11 11 -59 53 -106 94 -47 42 -92 79 -100 83 -26 13 173 -172 227
-211 29 -21 53 -41 53 -45 0 -24 -40 3 -132 86 -144 131 -170 159 -162 179 3
9 50 50 104 91 l97 74 69 -67 69 -66 -65 67 c-40 43 -61 71 -55 77 6 5 72 54
147 108 75 54 226 164 335 245 109 81 279 207 378 281 144 106 180 138 180
157 0 12 -7 27 -16 33 -18 11 15 33 -499 -336 -572 -411 -670 -482 -728 -524
-63 -47 -100 -58 -64 -20 12 13 22 29 22 35 0 6 11 19 25 28 14 9 22 20 19 25
-3 5 -2 8 3 7 4 -2 10 2 12 7 3 6 15 18 28 29 23 18 25 18 46 0 22 -19 22 -19
4 2 -18 21 -16 22 135 138 84 64 227 175 318 247 153 121 224 175 545 419 150
114 165 128 165 156 0 26 -24 48 -45 40 -8 -3 -132 -94 -276 -203 -144 -109
-412 -312 -596 -451 l-335 -253 -27 23 -26 23 23 -26 c22 -25 22 -26 3 -44
-20 -17 -21 -17 -50 8 l-30 25 22 20 c12 11 72 57 132 103 61 45 205 158 320
249 116 91 237 186 270 210 33 24 181 138 328 253 280 220 291 231 241 263
-19 13 -43 -4 -331 -219z m2353 -1123 c-3 -9 -6 -22 -6 -30 0 -11 -4 -12 -19
-4 -26 13 -31 13 -31 -5 0 -9 6 -12 15 -9 10 4 15 0 15 -15 0 -12 6 -21 13
-21 7 0 23 -23 35 -52 l22 -51 -38 -45 c-20 -24 -44 -53 -53 -64 -14 -18 -18
-19 -50 -5 -19 8 -45 26 -58 41 -59 64 2 206 112 260 41 20 51 20 43 0z m-355
-233 c6 10 9 11 9 2 0 -7 11 -13 25 -13 17 0 29 -8 37 -25 6 -14 9 -27 7 -29
-2 -2 -35 -20 -74 -39 -74 -37 -154 -100 -200 -154 -25 -31 -30 -33 -96 -33
-41 0 -69 4 -69 10 0 50 139 194 228 236 100 47 117 53 121 42 2 -6 7 -5 12 3z
m-3242 -528 c36 -101 68 -183 71 -183 3 0 18 19 34 41 40 57 43 42 6 -25 -27
-48 -30 -60 -22 -85 11 -31 -3 -101 -20 -101 -4 0 -8 -4 -8 -10 0 -5 27 17 61
50 70 70 107 83 53 20 -7 -8 -13 -18 -13 -23 0 -19 -46 -129 -86 -210 -37 -73
-45 -98 -45 -144 0 -55 0 -56 -20 -38 -25 23 -28 2 -4 -35 l16 -25 -20 22
c-28 32 -23 128 10 211 15 35 22 65 16 68 -5 3 -6 15 -3 27 5 16 4 18 -3 8
-11 -15 -13 -9 -43 111 -6 26 -15 46 -19 43 -4 -2 -6 6 -4 18 2 12 -20 112
-50 222 -30 110 -55 191 -55 181 -1 -11 -3 -17 -6 -14 -4 3 -3 18 1 32 6 24
10 27 47 24 l41 -3 65 -182z m-283 111 c-2 -6 -60 -34 -128 -63 -132 -55 -150
-63 -245 -106 -56 -25 -65 -27 -88 -15 -20 11 -27 11 -40 0 -12 -10 -15 -10
-15 3 0 8 6 19 13 24 11 10 446 205 477 215 15 5 34 -36 26 -58z m4604 -158
c0 -7 -50 -138 -130 -341 -43 -110 -138 -351 -211 -535 -72 -184 -135 -339
-139 -343 -11 -12 -60 3 -60 19 0 8 11 37 25 65 14 27 23 55 19 61 -5 7 -2 8
6 3 10 -6 12 -4 7 9 -4 9 -3 15 2 12 4 -3 13 6 20 20 13 30 14 45 1 24 -5 -8
-10 -10 -10 -5 0 14 20 43 20 30 1 -12 29 36 29 50 1 6 -4 3 -9 -5 -5 -8 -10
-12 -10 -9 0 14 108 266 220 514 67 149 135 304 152 345 16 41 35 78 41 82 13
8 27 10 27 4z m184 -189 c9 -40 26 -88 38 -107 18 -30 22 -53 24 -155 6 -206
15 -438 19 -475 7 -66 69 -219 95 -235 18 -11 11 -29 -18 -47 -15 -9 -60 -41
-101 -71 -68 -50 -77 -53 -112 -47 -44 8 -274 4 -289 -5 -22 -13 -31 7 -13 28
17 20 17 21 0 8 -9 -8 -20 -11 -23 -8 -3 3 -16 2 -28 -3 -34 -13 -51 3 -27 24
11 10 37 54 57 98 l37 79 97 -7 c64 -4 103 -3 116 4 15 9 7 11 -42 12 -60 0
-119 14 -139 32 -22 20 25 26 164 23 159 -5 201 0 201 21 0 15 -16 19 -24 6
-16 -26 -280 -19 -309 7 -14 14 76 211 97 211 9 0 12 7 9 19 -2 10 7 41 21 68
20 40 23 56 16 79 l-9 29 1 -30 c2 -32 -275 -617 -280 -593 -1 8 38 101 89
208 50 107 111 239 137 293 l45 98 -67 68 c-65 66 -72 81 -34 81 11 0 16 5 13
10 -4 6 10 -1 31 -15 37 -25 56 -27 36 -2 -14 16 0 82 29 139 11 21 19 47 17
57 -4 24 60 113 74 105 7 -4 8 -2 4 4 -6 9 19 62 29 62 2 0 10 -33 19 -73z
m-5114 -69 c16 -35 42 -85 58 -113 15 -27 52 -95 81 -149 l54 -100 -34 22
c-21 13 -59 61 -100 125 -59 92 -69 114 -84 193 -10 49 -21 93 -26 99 -5 5 -9
14 -9 19 0 17 28 -29 60 -96z m835 1 c-25 -78 -44 -185 -52 -282 -4 -49 0 -67
22 -113 28 -57 27 -83 -1 -48 -8 10 -12 12 -8 4 4 -8 4 -12 0 -8 -4 3 -6 8 -5
10 2 1 -9 24 -24 49 -15 25 -27 60 -27 77 0 18 -4 32 -10 32 -12 0 -12 -6 0
-49 8 -27 6 -38 -5 -51 -8 -9 -12 -20 -8 -23 9 -10 25 -9 19 1 -2 4 0 14 5 22
9 13 10 13 6 0 -2 -8 3 -20 11 -26 12 -9 9 -11 -16 -12 -38 -1 -50 13 -67 78
-13 49 -12 52 17 110 16 33 34 60 39 60 5 0 18 19 28 43 27 64 96 205 98 203
1 -1 -9 -36 -22 -77z m-865 -114 c1 -45 4 -55 10 -40 6 13 8 -5 5 -55 -3 -55
-2 -64 4 -35 5 22 9 31 10 20 0 -11 8 -90 16 -175 23 -252 47 -578 43 -602 -2
-13 -8 32 -12 100 -5 68 -11 121 -14 118 -3 -3 1 -80 8 -171 7 -91 11 -167 9
-169 -2 -2 -25 -7 -50 -11 l-46 -7 -12 199 c-6 109 -14 215 -17 237 -5 29 -3
37 6 31 8 -5 11 -4 6 3 -3 6 7 20 24 32 16 12 30 26 30 31 0 15 -32 10 -52 -8
-17 -15 -18 -14 -18 17 0 23 9 43 27 62 19 20 24 31 16 39 -7 7 -20 -2 -44
-32 l-34 -43 -6 44 c-14 95 -32 458 -24 476 7 17 8 17 15 -6 8 -25 8 -24 9 5
1 18 13 41 34 63 l32 33 12 -48 c6 -26 12 -75 13 -108z m-749 115 c16 0 109
-92 103 -101 -3 -5 4 -24 15 -43 20 -31 21 -48 21 -245 0 -116 -3 -210 -7
-210 -26 4 -34 -4 -13 -12 23 -8 22 -8 -7 -5 -18 1 -33 0 -33 -4 0 -4 -28 -12
-62 -19 -35 -7 -79 -16 -98 -20 -27 -6 -46 -2 -80 15 -61 29 -108 39 -107 22
1 -7 -2 -35 -8 -63 l-9 -50 -6 60 c-4 35 -2 63 4 67 5 3 -11 9 -37 13 -25 4
-50 12 -55 19 -11 15 -42 98 -42 114 0 7 -9 21 -20 32 -11 11 -20 27 -20 35 0
20 -29 19 -37 -1 -3 -9 1 -48 9 -86 11 -49 12 -71 4 -73 -6 -2 -51 -6 -101
-10 -156 -11 -288 -52 -298 -94 -3 -13 -5 -12 -11 4 -21 56 -12 57 -160 -16
-76 -38 -135 -69 -131 -69 4 0 2 -7 -5 -15 -7 -8 -18 -15 -24 -15 -6 0 -2 7 8
15 28 21 10 19 -33 -4 -76 -41 -123 -62 -117 -53 9 14 186 104 186 95 0 -4 4
-3 8 3 12 18 108 76 267 161 208 111 479 254 545 288 30 15 83 43 118 62 34
19 69 32 77 29 20 -7 28 10 15 35 -18 32 -42 23 -260 -97 -281 -153 -388 -206
-401 -198 -7 4 -9 3 -6 -2 3 -6 -15 -22 -39 -37 -25 -15 -43 -23 -39 -17 3 6
0 7 -9 4 -9 -3 -13 -11 -9 -17 3 -5 2 -7 -4 -4 -13 8 -116 -57 -106 -67 4 -4
-1 -4 -11 0 -15 6 -17 4 -11 -6 5 -8 4 -11 -2 -7 -6 4 -60 -23 -119 -59 -127
-77 -161 -95 -126 -67 56 45 699 449 807 506 120 64 304 180 316 199 9 15 22
-9 13 -24 -4 -7 4 -3 17 9 23 20 78 34 107 26 8 -1 18 -3 23 -3z m4607 -35
c15 -33 15 -35 -2 -35 -8 0 -18 -4 -21 -10 -3 -5 0 -7 8 -4 8 3 67 -4 131 -15
65 -12 123 -18 129 -14 5 3 7 1 3 -5 -3 -6 -1 -14 6 -19 20 -12 46 -14 53 -3
3 6 0 10 -7 10 -7 0 -2 6 12 13 14 7 34 27 45 44 25 39 64 63 102 63 l28 -1
-30 -14 -30 -14 38 5 c20 4 37 4 37 1 0 -3 -14 -20 -31 -39 -17 -18 -38 -41
-47 -50 -8 -10 -23 -18 -31 -18 -14 0 -14 -1 -1 -10 11 -7 5 -10 -22 -10 -36
0 -37 -1 -31 -30 5 -26 3 -30 -16 -30 -14 0 -21 6 -21 20 0 11 -2 20 -5 20 -3
0 -45 -7 -95 -15 -58 -10 -120 -14 -177 -11 -48 3 -91 6 -95 6 -5 0 -8 9 -8
21 0 11 -4 17 -10 14 -13 -8 -13 5 0 25 9 13 10 13 10 0 0 -8 9 -2 20 15 22
33 26 50 10 40 -5 -3 -10 0 -10 7 0 7 -3 23 -6 35 -5 17 -1 22 18 26 12 2 26
5 29 6 3 0 11 -10 17 -24z m1099 -318 c10 -6 13 -17 8 -34 -10 -42 -137 -303
-147 -303 -5 0 -7 -4 -4 -9 3 -4 -24 -67 -59 -139 -64 -131 -65 -132 -91 -122
-43 17 -44 20 -24 40 18 18 25 39 21 63 -1 4 6 21 14 37 10 19 12 30 5 30 -15
0 -41 26 -34 33 4 3 -3 15 -14 27 -19 21 -21 21 -31 3 -20 -34 -11 -4 31 104
39 102 42 106 56 85 8 -12 22 -22 31 -22 26 0 115 37 119 49 2 6 8 8 14 5 6
-4 6 1 -1 13 -6 11 -7 24 -3 28 4 5 -2 5 -12 1 -16 -6 -17 -4 -6 10 11 12 11
17 1 23 -7 5 -14 26 -15 47 -2 48 -12 65 -34 62 -21 -4 -20 21 3 75 l16 38 70
-68 c39 -37 77 -72 86 -76z m-5138 119 c19 -7 36 -17 38 -22 3 -10 -184 -133
-216 -141 -10 -3 -37 7 -61 22 -23 14 -45 24 -48 20 -4 -3 -1 -10 7 -14 10 -6
9 -10 -3 -14 -13 -5 -16 0 -14 24 2 29 11 35 108 85 110 56 133 60 189 40z
m3191 -201 c-13 -14 -22 -26 -19 -28 2 -2 31 -13 64 -25 55 -20 61 -20 77 -5
21 19 24 35 4 27 -8 -3 -17 -1 -20 4 -3 5 5 12 19 14 13 3 22 2 20 -3 -11 -17
15 -18 47 -2 18 9 40 20 50 24 22 11 101 14 116 5 23 -14 13 -36 -15 -36 -41
0 -125 -25 -156 -45 -17 -11 -27 -26 -27 -41 0 -16 -6 -24 -17 -25 -17 -1 -17
-2 0 -6 24 -6 21 -30 -5 -37 -33 -8 -50 -7 -44 3 10 16 -17 19 -99 11 -75 -7
-166 -38 -180 -60 -3 -5 -25 -15 -48 -22 -23 -6 -53 -18 -67 -26 -36 -20 26
35 125 112 111 86 129 94 155 71 11 -10 23 -16 26 -12 3 3 -4 12 -16 19 -19
11 -55 76 -47 84 6 6 53 23 66 23 10 1 7 -7 -9 -24z m-2835 -99 c60 -26 65
-68 16 -138 -42 -60 -111 -80 -111 -33 0 15 6 25 14 25 18 0 56 52 56 77 -1
16 -3 15 -21 -6 -23 -29 -24 -28 -33 26 -5 34 -3 44 11 52 24 14 28 13 68 -3z
m3817 -106 c35 -27 111 -265 79 -245 -20 11 -32 -5 -16 -21 17 -18 20 -34 5
-34 -6 0 3 -19 20 -42 16 -22 30 -47 30 -55 0 -7 5 -13 10 -13 11 0 5 55 -11
98 -5 13 -9 30 -9 39 0 13 3 13 16 2 8 -7 13 -21 11 -31 -3 -10 0 -18 5 -18 7
0 9 -21 6 -55 -3 -39 -1 -55 7 -55 7 0 19 -8 26 -17 12 -14 12 -15 0 -9 -14 9
-11 -15 13 -99 l12 -40 43 58 c29 37 47 54 51 46 5 -7 14 -8 21 -4 8 5 -11
-19 -41 -51 -30 -33 -58 -59 -61 -57 -3 1 -6 -4 -6 -13 0 -9 7 -12 19 -9 22 8
140 -53 131 -68 -3 -6 -1 -7 5 -3 7 4 66 -21 133 -55 85 -44 116 -65 106 -71
-17 -9 -28 -4 -230 104 -82 44 -150 78 -153 76 -2 -2 25 -20 60 -38 55 -30 62
-36 47 -47 -13 -9 -24 -7 -58 12 -24 13 -43 20 -43 15 0 -4 55 -38 123 -75
170 -93 181 -112 16 -29 l-137 69 -10 -50 c-6 -27 -17 -70 -25 -95 -9 -25 -28
-99 -44 -165 l-28 -120 -90 -67 c-49 -36 -96 -66 -105 -65 -11 1 -16 11 -16
33 0 18 4 31 8 28 4 -2 5 -13 3 -24 -2 -11 0 -22 4 -25 13 -7 21 60 21 176 0
86 5 124 26 195 15 49 30 103 34 119 5 17 11 39 15 50 4 13 -6 40 -31 80 -20
33 -42 76 -49 95 -13 34 -13 34 -8 -22 7 -69 -14 -111 -85 -174 -26 -23 -69
-76 -96 -119 -27 -43 -87 -130 -132 -194 -49 -68 -82 -122 -78 -131 3 -8 2
-11 -2 -7 -10 10 -36 -31 -28 -45 4 -6 3 -8 -3 -5 -6 4 -27 -21 -48 -56 -21
-34 -51 -74 -66 -89 -17 -15 -26 -33 -23 -41 7 -20 165 -40 219 -27 22 5 59
10 83 10 42 0 42 0 42 -36 0 -70 51 -139 112 -151 15 -3 30 -14 34 -25 4 -13
12 -18 25 -15 10 3 19 4 19 2 0 -2 3 -10 6 -19 4 -11 0 -16 -14 -16 -26 0 -35
-14 -27 -41 4 -12 10 -17 14 -12 8 14 51 26 51 15 0 -5 -11 -15 -25 -22 -34
-18 -31 -30 5 -20 18 5 30 5 30 -1 0 -5 -9 -9 -19 -9 -11 0 -23 -5 -27 -11 -4
-8 4 -9 27 -5 34 5 34 5 7 -6 -43 -18 -37 -42 9 -35 24 4 33 3 26 -4 -5 -5
-20 -11 -32 -12 -11 -1 -21 -5 -21 -10 0 -4 17 -5 38 -2 27 4 32 3 17 -4 -19
-9 -18 -12 8 -15 6 -1 12 -11 11 -23 0 -12 5 -24 13 -27 17 -7 16 3 -3 49 -8
21 -13 46 -11 57 3 11 1 16 -6 11 -7 -4 -8 0 -4 11 5 11 3 15 -5 10 -8 -5 -9
-2 -5 10 4 11 3 15 -4 10 -8 -4 -9 1 -4 16 5 15 4 20 -4 16 -9 -6 -13 6 -10
30 0 4 -3 10 -8 13 -5 3 -17 32 -26 64 -10 31 -22 55 -28 52 -17 -11 -9 2 13
21 19 15 20 16 9 1 -19 -24 2 -22 24 3 10 11 15 20 10 20 -4 0 -2 7 5 15 7 8
16 13 20 10 4 -2 22 7 41 21 28 21 35 22 37 9 3 -12 11 -14 38 -9 33 6 34 6
34 -28 0 -55 18 -94 57 -124 30 -22 40 -25 62 -17 14 5 25 14 24 20 -1 6 5 10
15 9 9 0 17 4 17 11 0 6 4 15 9 20 5 5 6 2 1 -6 -5 -9 -3 -12 6 -9 8 3 14 10
14 15 0 6 4 15 9 20 5 5 6 2 1 -6 -5 -9 -3 -12 6 -9 8 3 13 10 12 15 -1 5 26
9 60 9 l62 -1 5 -46 c6 -52 30 -95 59 -104 17 -5 18 -10 9 -40 -10 -30 -6 -47
36 -152 48 -125 54 -148 34 -140 -7 2 -47 10 -88 17 -41 7 -82 19 -91 26 -9 9
-19 10 -25 4 -5 -5 -14 -6 -20 -2 -11 7 -54 85 -54 97 0 3 26 5 58 5 65 0 102
8 102 22 0 5 -4 6 -10 3 -5 -3 -43 -8 -84 -11 -67 -5 -76 -3 -85 14 -6 11 -7
22 -4 26 3 3 1 6 -5 6 -6 0 -9 7 -6 15 3 8 0 17 -8 20 -8 3 -15 11 -15 18 -1
18 -41 107 -49 107 -3 0 -4 -9 -1 -20 3 -10 0 -21 -7 -24 -6 -2 -3 -5 7 -5 14
-1 17 -6 12 -21 -5 -15 -2 -20 12 -21 11 0 13 -3 5 -6 -7 -3 -20 -2 -28 1 -14
5 -14 9 -3 23 12 14 12 16 -1 11 -28 -9 -17 -42 15 -49 28 -6 28 -7 5 -9 -24
-2 -24 -3 5 -10 17 -4 22 -8 13 -9 -9 0 -19 -5 -22 -10 -3 -4 7 -6 22 -4 21 4
24 2 12 -6 -13 -9 -13 -11 1 -11 9 0 20 -10 26 -22 9 -20 6 -25 -16 -35 -25
-12 -25 -13 9 -8 33 5 34 4 10 -7 -14 -7 -27 -13 -28 -14 -2 -1 1 -11 7 -21 9
-15 10 -16 11 -2 0 28 36 30 49 2 6 -13 11 -26 11 -28 0 -9 -86 -3 -170 12
-47 8 -102 17 -122 20 -21 3 -38 9 -38 12 0 4 -35 8 -77 8 -77 1 -369 54 -383
70 -4 4 -42 54 -84 111 -42 56 -81 102 -87 102 -6 0 -8 4 -4 9 3 5 -5 17 -17
25 -12 9 -19 16 -15 16 5 0 -28 48 -73 106 l-81 106 38 -6 c64 -12 68 -14 95
-69 18 -37 32 -53 47 -54 18 -2 21 4 21 33 0 22 -5 34 -13 34 -8 0 -19 11 -25
24 -8 18 -21 25 -61 30 -28 4 -51 10 -51 13 0 3 18 40 41 80 22 41 38 82 35
91 -3 9 -1 24 5 32 8 12 9 9 4 -10 l-6 -25 15 25 c9 14 36 89 62 168 56 175
96 255 169 333 59 65 68 83 33 70 -13 -5 -74 -18 -137 -31 -93 -18 -115 -20
-122 -9 -11 18 -9 19 47 24 51 4 77 25 67 52 -4 9 2 22 12 29 17 13 17 14 -11
14 -28 1 -28 1 -9 16 11 8 31 13 45 11 14 -2 39 -1 55 3 40 9 85 -14 86 -43 1
-17 2 -18 6 -4 2 9 -4 32 -15 50 -10 17 -27 68 -37 111 -18 78 -18 79 -36 58
-9 -12 -20 -28 -23 -35 -3 -8 -9 -6 -20 7 -14 18 -14 22 0 44 39 59 129 114
206 125 l36 5 33 -83 c18 -46 38 -86 46 -89 7 -3 13 -1 13 3 0 5 -4 11 -9 13
-6 2 -5 21 1 49 10 45 12 47 72 68 33 12 69 21 78 21 9 0 19 4 22 8 6 11 -78
-2 -116 -17 -39 -15 -56 -5 -68 37 -12 46 -13 192 -1 211 25 40 123 53 163 21z
m-325 -18 c51 -26 76 -58 101 -125 37 -101 41 -92 -38 -93 -40 0 -75 -5 -82
-12 -7 -7 -19 -12 -29 -12 -9 0 -42 -25 -74 -56 l-58 -55 -28 27 c-16 15 -27
30 -24 32 2 2 -9 30 -25 61 -15 31 -36 83 -45 114 -16 57 -35 71 -30 22 3 -21
1 -23 -15 -15 -9 5 -21 6 -26 2 -5 -4 7 11 26 32 19 21 67 54 105 73 63 31 77
34 135 30 39 -2 82 -12 107 -25z m-5343 -67 c-6 -33 -5 -35 25 -41 26 -6 32
-13 41 -48 6 -22 21 -75 34 -116 13 -41 27 -85 30 -97 5 -16 2 -22 -11 -25
-10 -2 59 -7 152 -11 180 -7 295 -26 430 -72 75 -25 186 -76 215 -99 17 -13
98 -41 147 -51 21 -4 45 -21 67 -48 l34 -41 68 41 c184 107 292 157 389 177
l30 6 -3 -82 c-4 -110 18 -157 102 -212 l58 -39 -23 -19 c-64 -51 -69 -51
-364 -59 -389 -11 -584 -31 -522 -54 9 -4 24 -5 32 -1 30 11 14 -3 -42 -38
-45 -28 -68 -36 -104 -36 -78 0 -204 29 -378 86 -93 30 -194 56 -231 60 -36 3
-69 10 -75 14 -17 14 -49 15 -73 2 -12 -7 -27 -10 -32 -7 -6 3 -10 1 -10 -6 0
-8 15 -10 54 -5 33 3 57 2 61 -4 3 -5 22 -10 41 -10 19 0 34 -2 34 -5 0 -3
-12 -24 -26 -46 -14 -22 -28 -49 -32 -59 -6 -16 -17 -11 -91 42 -67 49 -80 63
-67 70 9 5 16 14 16 19 0 6 -5 7 -12 3 -8 -5 -9 -1 -5 12 7 18 6 18 -7 2 -8
-12 -49 -25 -115 -38 -55 -11 -113 -25 -127 -30 -34 -13 -41 -7 -55 42 -10 38
-8 74 8 166 3 20 1 32 -5 30 -12 -4 -280 187 -304 216 -13 15 -18 39 -18 84 0
60 -1 62 -26 62 -16 0 -39 -13 -61 -35 -64 -64 -46 -28 23 44 37 39 69 69 72
66 3 -2 0 -10 -5 -17 -17 -22 -23 -48 -11 -45 6 1 21 12 35 23 13 12 87 56
165 97 l141 75 130 -111 c72 -62 149 -129 171 -150 21 -21 44 -36 49 -34 6 2
-32 39 -84 83 -86 72 -241 218 -194 182 11 -8 86 -70 166 -136 102 -85 154
-122 170 -121 21 1 21 2 4 6 -11 3 -45 26 -77 52 -31 25 -66 53 -77 62 l-21
16 19 56 c11 31 19 76 18 100 -1 32 4 51 17 66 30 34 48 27 40 -14z m4461 23
c-11 -6 -25 -19 -32 -27 -20 -28 7 -30 68 -5 67 28 81 30 53 10 -17 -13 -15
-14 20 -6 22 5 43 7 47 4 4 -2 10 2 12 8 4 8 6 9 6 2 1 -6 -7 -18 -16 -25 -14
-12 -15 -12 -9 0 7 10 3 12 -15 6 -13 -4 -26 -12 -27 -16 -2 -5 -8 -7 -13 -3
-5 3 -16 -2 -25 -10 -9 -9 -20 -14 -25 -10 -5 3 -51 -28 -102 -69 -96 -79
-146 -127 -132 -127 5 0 -14 -16 -43 -36 -30 -21 -52 -44 -52 -55 0 -10 -9
-24 -19 -31 -11 -8 -17 -19 -13 -24 7 -10 114 -104 190 -167 51 -41 28 -32
-41 17 -86 60 -155 99 -165 92 -5 -3 -18 1 -28 9 -18 13 -18 14 5 38 l23 26
-33 3 c-42 4 -72 47 -51 75 7 10 22 33 33 51 12 17 27 32 34 32 7 0 15 5 17
11 2 6 20 12 41 14 28 1 57 17 121 66 46 35 92 70 102 76 31 21 -24 -1 -108
-42 l-73 -35 59 52 c36 33 83 63 125 80 69 28 100 36 66 16z m-2519 -29 c2 -5
24 -17 48 -28 66 -29 69 -55 13 -105 -25 -23 -84 -89 -130 -148 l-84 -107 -12
161 c-7 88 -11 161 -9 162 2 2 24 13 51 26 26 13 54 31 63 41 15 16 49 16 60
-2z m-357 -116 c1 -39 -2 -45 -39 -69 -22 -15 -37 -31 -33 -37 3 -6 1 -7 -5
-3 -6 3 -39 -9 -73 -28 l-62 -35 -51 20 c-38 14 -52 16 -58 6 -4 -6 -8 -7 -8
-2 0 20 17 33 113 84 87 47 103 53 147 49 l50 -3 1 55 c1 43 3 49 9 30 4 -14
8 -44 9 -67z m-543 -111 c-7 -26 -19 -59 -25 -72 l-12 -25 18 23 19 23 14 -28
c7 -15 16 -47 20 -70 l7 -41 -41 -5 c-23 -2 -46 0 -52 4 -6 5 -14 5 -19 1 -4
-4 2 12 14 35 33 67 24 64 -14 -4 -28 -49 -39 -60 -55 -56 -11 3 -20 0 -20 -6
0 -16 -24 -14 -65 6 -39 18 -44 43 -24 102 16 45 42 41 73 -14 15 -27 16 -27
11 -5 -4 14 -9 32 -11 41 -6 17 58 74 128 114 24 14 44 25 45 25 0 0 -5 -22
-11 -48z m3848 -79 c122 77 126 66 15 -45 -66 -66 -76 -80 -54 -74 38 10 27
-4 -72 -83 -71 -58 -93 -70 -136 -76 -29 -5 -55 -9 -59 -10 -5 -2 -13 -3 -19
-4 -5 0 -17 -17 -25 -36 -13 -32 -16 -34 -30 -20 -18 18 -34 19 -69 3 -32 -14
-42 -5 -23 24 8 14 14 45 13 76 -1 43 1 52 13 47 12 -4 12 -2 3 8 -12 15 11
44 63 80 17 12 25 25 22 34 -3 7 -2 11 4 8 5 -3 14 4 20 15 13 25 32 27 23 3
-6 -16 -5 -16 10 -4 9 7 17 11 17 8 0 -3 11 5 25 18 13 14 30 25 37 25 14 -1
-20 -30 -34 -30 -4 0 -8 -6 -8 -14 0 -8 -13 -17 -30 -21 -19 -4 -30 -13 -30
-23 0 -10 3 -13 8 -6 4 5 21 16 37 23 17 6 41 26 54 44 13 18 40 40 60 50 20
9 50 25 66 35 l30 19 24 -44 c23 -40 26 -42 45 -30z m2406 -98 c0 -5 -88 -67
-178 -127 -61 -41 -105 -48 -138 -23 -11 9 -43 15 -79 15 l-60 1 30 24 c28 23
38 25 155 27 69 1 105 3 80 5 -25 2 -59 10 -77 18 -17 8 -39 15 -49 15 -16 0
-16 1 0 19 10 11 28 22 40 24 30 6 276 8 276 2z m-2243 -19 c0 -8 -4 -14 -7
-13 -15 4 -70 -44 -64 -55 4 -6 3 -8 -3 -5 -17 11 -203 -182 -273 -283 -35
-49 -69 -90 -76 -90 -10 0 -29 19 -140 143 -19 20 -31 37 -26 37 4 0 13 -5 20
-12 6 -6 20 -13 29 -14 10 -2 41 -8 68 -14 28 -7 60 -14 73 -16 22 -4 22 -5 6
-37 -13 -28 -11 -26 22 13 96 115 347 359 370 360 0 0 1 -6 1 -14z m-6115 -43
c-39 -4 -42 -6 -30 -21 9 -11 9 -14 1 -8 -9 5 -11 2 -7 -8 4 -11 11 -13 31 -5
41 15 93 11 99 -8 9 -29 32 -68 147 -258 108 -177 137 -219 124 -182 -4 11 -3
16 4 12 6 -4 8 -13 5 -21 -3 -8 4 -30 15 -49 22 -36 36 -47 25 -19 -3 9 -2 12
5 9 6 -4 8 -14 5 -22 -4 -9 38 -87 99 -189 57 -96 101 -174 98 -174 -13 0
-221 136 -312 204 -174 129 -310 275 -372 398 -29 58 -31 60 -62 54 -18 -4
-86 -9 -152 -13 l-120 -6 -17 37 c-23 47 -23 46 10 46 65 0 186 48 253 101 32
25 38 27 49 14 17 -21 24 -12 11 14 -8 15 -8 31 1 61 l13 40 60 -2 c51 -1 53
-2 17 -5z m8533 -79 c-5 -30 -10 -34 -38 -35 -29 -2 -29 -2 -6 -6 21 -3 26 -9
22 -23 -5 -19 -71 -39 -131 -40 -15 -1 -45 -7 -67 -15 l-40 -14 28 23 c19 15
38 21 65 19 34 -2 35 -1 7 5 -20 5 -26 10 -17 15 7 5 10 12 7 17 -3 5 0 12 6
16 8 4 9 3 5 -4 -4 -7 -3 -12 3 -12 11 0 26 20 26 35 0 5 9 10 20 10 13 0 19
6 17 15 -2 8 0 12 3 8 11 -11 47 11 39 24 -4 6 -3 8 3 5 6 -4 19 0 29 8 16 12
19 12 22 -2 2 -8 1 -30 -3 -49z m-3925 -163 c0 -5 -30 20 -67 55 -37 35 -68
62 -70 60 -2 -2 9 -25 26 -51 38 -59 46 -97 29 -128 -11 -19 -201 -207 -210
-207 -2 0 -2 28 -1 62 1 35 -1 52 -3 38 -3 -14 -14 -55 -26 -91 -18 -60 -27
-73 -90 -129 -81 -73 -85 -72 -109 27 l-16 67 45 48 c45 49 56 51 65 13 3 -11
5 -2 6 21 1 36 9 50 64 109 l62 69 6 -50 6 -49 1 53 c2 52 4 56 80 138 l77 84
63 -65 c34 -36 62 -69 62 -74z m3897 13 c-2 -2 -46 -29 -98 -60 -52 -31 -173
-108 -269 -171 -150 -99 -169 -109 -135 -72 22 23 49 51 60 60 11 10 16 18 10
19 -5 0 1 7 13 16 12 8 27 12 34 8 7 -4 8 -3 4 4 -4 7 -4 12 1 13 26 2 45 11
108 50 39 23 76 42 83 42 6 0 12 4 12 8 0 9 90 62 107 62 7 0 14 6 17 13 3 8
12 11 22 7 12 -4 15 -3 10 5 -5 8 -2 10 9 6 9 -4 14 -8 12 -10z m-2920 -251
c7 -9 10 -20 7 -24 -3 -5 1 -9 8 -10 22 -1 -25 -18 -53 -18 -26 -1 -39 -17
-39 -47 0 -10 12 -14 40 -14 31 0 38 -3 34 -15 -4 -8 -9 -13 -13 -10 -5 2 -24
-10 -43 -28 -29 -26 -43 -32 -79 -31 -94 2 -181 34 -148 55 6 3 0 9 -13 13
l-23 6 25 15 c14 8 33 14 43 15 29 0 9 20 -21 20 -23 1 -25 2 -9 11 9 5 17 17
17 25 0 8 4 13 9 10 5 -4 11 -2 13 3 1 6 23 19 48 29 57 25 178 22 197 -5z
m-4450 -118 c0 -8 -8 -15 -17 -15 -9 0 -25 -9 -35 -20 -17 -18 -16 -19 8 -25
13 -4 31 -6 38 -5 8 2 28 2 44 1 30 -1 30 -1 -15 -27 -25 -15 -70 -50 -100
-79 -78 -73 -170 -148 -203 -165 -17 -8 -26 -19 -22 -28 3 -7 -2 -20 -10 -28
-8 -9 -15 -12 -15 -8 0 5 -5 3 -11 -3 -6 -6 -17 -9 -24 -7 -16 6 -7 44 10 44
20 0 65 40 65 58 0 42 54 126 129 205 45 46 78 87 75 90 -9 8 43 20 55 13 5
-4 12 -2 16 4 9 14 12 13 12 -5z m3919 1 c-1 -8 -7 -20 -14 -28 -6 -8 -8 -19
-4 -23 4 -5 1 -5 -5 -1 -26 15 -11 -6 67 -97 107 -123 174 -253 195 -376 l7
-43 -42 31 c-27 19 -60 33 -90 37 l-47 6 -13 57 c-18 82 -70 241 -88 271 -27
42 -70 89 -76 83 -3 -4 -6 -4 -6 -1 0 3 10 13 22 24 12 10 18 13 13 5 -5 -9
-3 -12 6 -9 8 3 14 10 14 16 0 5 4 14 9 19 5 5 6 3 2 -4 -11 -20 9 -15 29 7
10 11 15 20 11 20 -4 0 -4 5 -1 10 9 14 14 12 11 -4z m-582 -207 c9 -23 16
-42 14 -43 -2 -2 -42 -33 -89 -69 -48 -37 -92 -67 -98 -67 -7 0 -23 -7 -36
-16 -25 -16 -25 -16 -45 27 -28 63 -25 80 23 126 33 32 54 43 100 51 32 7 66
16 75 21 29 18 39 12 56 -30z m5620 -113 c12 -7 54 -19 94 -26 39 -6 72 -16
72 -20 0 -5 25 -14 55 -20 30 -6 55 -15 55 -19 0 -17 59 -34 140 -41 57 -5 -2
-7 -180 -6 -255 1 -266 2 -303 23 -27 17 -51 22 -90 21 -28 -1 -159 2 -289 6
-214 8 -238 7 -253 -8 -11 -10 -26 -14 -43 -11 -20 4 -18 2 7 -8 39 -15 53
-37 23 -37 -31 0 -124 35 -177 68 -28 16 -69 33 -92 37 -24 4 -45 11 -49 16
-3 5 -49 9 -102 10 -53 0 -115 4 -137 8 -63 12 195 25 345 17 317 -16 585 -17
710 -3 131 16 179 14 214 -7z m-4149 -154 l18 -143 -24 -17 c-13 -9 -27 -17
-32 -17 -4 0 -31 49 -60 110 l-53 110 65 51 c36 28 67 51 67 50 1 -1 9 -65 19
-144z m-3087 84 c22 -8 53 -23 68 -33 15 -10 38 -16 51 -15 22 3 23 2 11 -17
-10 -17 -9 -27 10 -66 12 -25 27 -45 32 -45 6 0 8 -5 4 -12 -4 -7 -3 -8 4 -4
8 5 4 22 -13 56 -14 27 -25 54 -25 59 0 16 99 41 190 48 l85 6 -3 -46 c-5 -62
20 -113 69 -137 46 -24 62 -25 92 -6 27 18 131 46 169 46 26 0 28 -3 28 -44 0
-28 7 -52 20 -69 25 -32 73 -50 90 -34 6 7 11 8 10 2 -5 -26 2 -25 23 1 12 16
21 32 20 35 -1 4 4 13 12 19 8 7 15 10 15 6 0 -10 58 22 66 36 5 9 3 9 -9 -1
-25 -20 -21 -7 5 15 12 10 18 13 14 7 -14 -24 10 -13 40 18 16 17 41 39 55 50
l27 19 -17 -68 -18 -67 -49 2 c-50 2 -50 0 0 -12 22 -5 26 -9 17 -18 -6 -6
-11 -28 -11 -49 0 -29 7 -45 26 -63 15 -14 32 -26 38 -26 6 -1 18 -2 26 -3 10
-1 14 -10 12 -31 -2 -24 9 -45 50 -97 29 -37 61 -80 71 -97 18 -31 18 -31 -5
-31 -13 0 -34 -3 -48 -6 -20 -5 -22 -4 -10 6 12 9 4 10 -35 5 -38 -4 -46 -3
-35 5 12 9 4 10 -33 6 -30 -4 -46 -2 -42 4 4 6 -12 8 -42 5 -36 -4 -42 -2 -23
4 22 8 12 16 -13 12 -5 -1 -6 3 -2 9 4 6 -3 25 -14 44 -12 18 -21 36 -21 39 0
3 19 3 43 1 l42 -3 -40 8 c-22 5 -43 7 -46 5 -3 -2 -16 19 -29 46 -13 28 -32
57 -42 67 -10 9 -18 28 -19 42 -1 26 -1 26 -9 -3 -7 -23 -5 -32 7 -41 10 -7
13 -17 8 -25 -5 -8 -4 -11 1 -7 10 6 60 -65 66 -93 3 -14 13 -29 36 -55 11
-12 8 -16 -15 -22 -59 -17 -244 -2 -213 17 8 5 -1 10 -27 15 -44 7 -40 0 -129
190 -25 55 -50 111 -53 125 -6 20 -12 7 -30 -68 -13 -51 -21 -96 -17 -99 3 -4
6 5 6 18 1 15 13 -7 34 -56 l32 -80 -30 -8 c-17 -5 -64 -4 -113 3 -99 14 -115
30 -118 115 -2 40 -9 65 -29 95 -14 22 -29 40 -31 40 -3 0 2 -11 11 -25 9 -14
13 -25 10 -25 -4 0 0 -10 8 -22 17 -24 22 -68 7 -68 -5 0 -28 29 -51 65 -23
36 -47 62 -53 58 -5 -3 -7 -2 -4 4 4 6 -1 19 -9 29 -9 10 -12 13 -8 5 4 -9 3
-12 -4 -7 -6 4 -9 13 -6 20 3 7 -3 19 -13 27 -17 13 -17 13 -3 -6 14 -18 14
-19 -2 -7 -9 8 -15 19 -12 26 6 15 -54 99 -65 91 -5 -2 -15 3 -22 13 -13 15
-12 16 4 3 30 -24 18 4 -15 35 -27 24 -29 25 -13 4 l20 -25 -22 18 c-12 11
-19 25 -17 31 3 7 -11 27 -31 45 -40 35 -36 38 23 17z m1709 -68 c26 -44 49
-105 57 -150 l7 -36 -57 -12 c-30 -7 -87 -22 -125 -35 -38 -13 -67 -20 -64
-14 4 5 2 9 -4 9 -18 0 -54 80 -42 94 6 7 9 15 6 18 -3 3 2 11 12 19 11 9 14
10 9 2 -14 -24 10 -13 39 17 16 17 25 30 20 30 -4 0 0 9 10 20 10 11 22 17 27
14 5 -3 24 8 44 25 19 17 36 31 38 31 2 0 13 -15 23 -32z m5197 -7 c6 -10 -45
-31 -75 -31 -24 0 -52 -44 -45 -68 5 -16 20 -20 89 -25 119 -10 309 -8 303 2
-3 4 2 8 12 8 9 -1 94 2 187 6 111 5 180 4 200 -3 25 -8 18 -9 -40 -6 -42 2
-62 0 -50 -5 11 -4 35 -8 54 -8 19 -1 32 -4 28 -7 -9 -9 -257 -20 -257 -11 0
4 -10 8 -22 9 -13 1 2 4 32 8 54 7 53 7 -25 8 -55 1 -75 -1 -65 -8 10 -6 -51
-10 -182 -10 -125 0 -198 -4 -198 -10 0 -5 4 -10 9 -10 5 0 4 -11 -2 -24 -10
-21 -17 -23 -47 -18 -32 5 -34 4 -21 -11 7 -10 10 -17 5 -17 -5 0 5 -9 21 -20
25 -16 26 -20 10 -19 -11 0 -37 6 -58 14 -38 13 -38 13 -20 -7 18 -21 18 -21
-12 -14 -32 8 -84 43 -126 85 -14 14 -48 45 -76 68 -42 35 -50 46 -46 68 4 20
8 23 19 14 8 -7 17 -9 21 -6 3 4 19 -5 36 -19 21 -18 33 -22 40 -15 6 6 22 11
35 11 13 0 36 9 51 20 66 46 199 78 215 51z m-7021 -25 c16 -13 16 -20 0 -155
l-17 -141 -168 -100 c-92 -56 -168 -103 -168 -106 0 -3 15 3 33 14 17 11 74
43 126 72 52 28 112 63 134 77 l40 25 -7 -42 c-3 -23 -9 -68 -13 -100 l-6 -59
-151 -49 c-192 -63 -357 -134 -520 -225 -159 -87 -261 -162 -381 -278 -51 -49
-95 -86 -98 -82 -4 3 -2 12 3 18 13 16 2 45 -17 45 -8 0 -12 4 -9 9 4 5 -3 7
-13 4 -11 -3 -18 -10 -17 -16 2 -7 1 -9 -1 -4 -3 4 -9 5 -14 1 -5 -3 -9 -2 -9
2 0 17 70 66 242 169 298 179 602 366 613 378 6 6 -1 4 -15 -4 -196 -120 -705
-421 -735 -437 -22 -11 -104 -58 -183 -105 -117 -70 -144 -83 -149 -70 -4 9
-7 50 -7 92 -1 70 1 79 29 115 21 28 185 143 575 402 300 199 611 408 693 463
146 100 176 113 210 87z m5588 0 c9 -4 28 -5 42 -2 15 3 27 2 27 -1 0 -5 -62
-77 -152 -177 -10 -10 -15 -24 -11 -29 3 -6 2 -7 -4 -4 -5 3 -27 -15 -49 -41
-21 -26 -103 -120 -181 -209 -136 -154 -159 -184 -130 -167 6 4 3 -2 -7 -14
-11 -12 -22 -20 -24 -17 -7 7 -72 -55 -72 -68 0 -5 8 -3 18 4 15 13 16 12 3
-4 -8 -9 -16 -15 -19 -12 -3 3 -15 -3 -26 -12 -21 -18 -21 -18 -5 2 12 14 16
36 13 75 -2 39 2 62 14 80 9 14 17 28 17 32 0 4 34 44 75 90 42 46 135 151
207 233 72 83 151 169 177 192 25 23 46 46 46 52 0 10 14 9 41 -3z m-5463 -73
c-10 -2 -18 -10 -18 -18 0 -7 25 -84 55 -171 39 -110 63 -166 80 -181 31 -27
32 -37 4 -30 -12 3 -29 2 -38 -3 -9 -5 -59 -18 -111 -29 -52 -10 -102 -22
-110 -25 -12 -5 -16 1 -17 26 -1 30 -1 30 6 8 l8 -25 6 30 c4 17 18 107 32
200 30 194 35 215 45 165 l7 -35 2 36 c1 40 16 59 46 58 16 -1 17 -2 3 -6z
m7170 -173 c52 0 91 -4 88 -9 -6 -9 111 -29 192 -33 24 -1 46 -6 48 -10 3 -5
9 -6 14 -3 4 3 13 -1 19 -9 9 -10 8 -15 -4 -20 -8 -3 -15 -12 -15 -20 0 -9
-17 -16 -47 -21 -41 -6 -45 -9 -25 -16 12 -5 22 -12 22 -17 0 -8 -137 -32
-177 -32 -20 0 -15 18 5 22 9 2 -28 12 -83 21 -161 29 -267 57 -307 83 -21 13
-43 24 -50 24 -20 0 32 32 66 41 17 5 60 6 96 4 36 -3 107 -5 158 -5z m-6639
-426 c35 -7 59 -38 39 -50 -7 -4 -8 -3 -4 4 15 24 -9 10 -93 -56 -121 -96
-276 -212 -284 -212 -4 0 13 40 38 90 45 89 45 90 147 159 110 75 109 74 157
65z m2431 -71 c35 -45 104 -197 91 -201 -6 -2 -11 -8 -11 -14 0 -6 6 -8 14 -5
7 3 13 0 12 -6 -2 -23 37 -146 45 -142 4 3 7 -10 6 -29 -1 -19 -6 -31 -11 -28
-5 3 -6 -2 -3 -12 4 -9 3 -15 -2 -12 -5 3 -14 -1 -21 -9 -8 -9 -21 -13 -34
-10 -18 5 -17 3 4 -10 l25 -15 -35 6 c-42 6 -103 51 -96 69 3 8 0 15 -6 17 -6
2 14 17 45 33 54 27 75 55 42 55 -8 0 -19 9 -25 20 -7 12 -21 20 -38 20 -16 0
-32 8 -40 20 -11 17 -10 20 7 20 22 0 20 14 -13 95 -17 40 -17 40 3 18 10 -13
23 -23 27 -23 4 0 18 -10 31 -22 22 -20 23 -20 22 -2 -1 27 -19 71 -52 126
-26 43 -31 47 -50 37 -18 -9 -18 -7 3 10 32 26 34 26 60 -6z"/>
<path d="M2161 5464 c-27 -35 -61 -127 -61 -168 0 -21 -8 -40 -21 -52 -12 -10
-60 -73 -107 -139 -47 -66 -116 -159 -153 -207 -38 -48 -69 -90 -69 -93 0 -3
-22 -38 -50 -77 -27 -39 -50 -77 -50 -85 0 -7 -4 -13 -10 -13 -5 0 -7 -7 -3
-15 3 -10 1 -15 -6 -13 -7 2 -38 -44 -70 -102 -69 -126 -88 -175 -43 -114 16
22 37 53 45 70 l16 29 -4 -30 c-3 -16 -9 -56 -14 -87 -17 -97 -24 -357 -12
-446 14 -108 76 -283 162 -459 39 -79 72 -143 75 -143 6 0 -10 38 -75 170 -70
143 -81 184 -18 65 47 -88 96 -165 106 -165 3 0 16 33 29 73 38 120 166 334
194 325 5 -2 9 -8 9 -13 0 -6 19 -30 43 -55 55 -57 146 -176 146 -190 0 -6 5
-8 11 -5 6 4 1 19 -14 38 -13 18 -40 60 -61 95 -21 34 -59 84 -85 111 l-48 50
43 42 44 43 -24 13 c-24 13 -126 155 -126 176 0 5 -3 8 -6 5 -11 -12 42 -105
88 -152 26 -27 48 -51 48 -53 0 -12 -52 1 -89 22 -23 14 -45 25 -48 25 -15 0
51 -42 84 -55 l38 -14 -45 -2 c-31 -1 -37 -3 -17 -6 42 -7 33 -26 -10 -21 -21
3 -46 8 -56 12 -13 6 -16 5 -11 -8 4 -10 18 -16 40 -16 45 0 44 -14 -8 -82
-24 -30 -61 -86 -82 -125 -26 -45 -45 -69 -55 -68 -9 1 -10 0 -3 -2 17 -6 15
-18 -11 -91 l-23 -62 -46 77 c-26 43 -58 101 -72 128 -14 28 -25 44 -26 36 0
-8 -2 -12 -5 -9 -3 3 -3 12 1 21 5 14 10 12 29 -11 13 -15 38 -36 56 -46 l34
-20 -31 30 c-16 16 -44 50 -62 76 -29 42 -32 54 -34 130 l-2 83 -6 -70 c-8
-87 -10 -74 -14 90 -2 94 -9 152 -25 209 -18 69 -20 94 -14 207 3 71 9 126 13
124 4 -2 5 6 3 18 -2 12 0 33 6 47 9 22 10 20 6 -15 -4 -35 -2 -31 18 25 56
153 92 208 231 350 139 143 186 195 186 207 0 4 -57 -51 -126 -122 -123 -127
-130 -126 -30 5 82 106 116 145 129 145 7 0 12 5 12 10 0 6 15 26 33 45 17 19
33 41 33 50 1 8 5 2 9 -15 6 -23 8 -15 9 36 1 76 31 184 62 223 11 14 18 26
15 26 -2 0 -14 -12 -25 -26z"/>
<path d="M3297 5251 c-15 -20 -35 -46 -45 -59 -10 -13 -32 -27 -50 -30 l-32
-7 24 -30 23 -29 26 29 25 30 59 -30 c32 -16 67 -29 78 -28 11 1 14 -1 7 -4
-9 -3 -3 -15 20 -38 18 -17 48 -58 67 -89 41 -69 100 -220 101 -258 0 -15 4
-29 9 -33 11 -6 6 29 -14 102 -8 28 -12 59 -8 69 5 13 3 15 -8 9 -11 -7 -12
-6 -3 6 7 8 14 23 17 34 4 17 5 16 7 -5 1 -14 2 -28 1 -32 0 -5 3 -8 9 -8 5 0
10 15 10 33 0 24 3 28 10 17 8 -13 10 -12 10 3 0 11 -8 17 -21 17 -11 0 -18 4
-15 8 2 4 -4 13 -15 20 -10 7 -19 9 -18 5 1 -5 1 -26 0 -48 l-2 -40 -26 50
c-14 28 -48 79 -75 113 -59 76 -54 76 95 3 53 -26 97 -47 97 -45 0 10 -114 67
-230 114 -74 30 -135 60 -135 65 0 6 4 16 9 23 4 7 5 16 2 19 -3 3 1 21 10 41
8 19 13 36 12 37 -2 2 -16 -14 -31 -34z"/>
<path d="M849 5248 c-48 -64 -52 -73 -22 -44 22 19 36 25 46 20 12 -7 -32 -78
-225 -354 -132 -190 -301 -433 -375 -540 -75 -107 -142 -202 -150 -210 -13
-13 -17 -12 -38 13 -27 30 -37 35 -29 12 4 -8 1 -15 -5 -15 -9 0 -9 -5 -1 -21
7 -11 17 -18 25 -15 30 11 21 -10 -25 -62 -49 -55 -50 -57 -50 -121 1 -66 1
-66 16 -37 13 22 18 26 25 15 13 -20 11 -63 -3 -78 -11 -10 -10 -11 3 -6 14 5
17 -9 22 -101 10 -156 9 -208 -5 -223 -11 -10 -10 -11 5 -6 14 6 17 1 17 -35
0 -38 -2 -41 -22 -35 -54 15 -63 17 -57 11 6 -6 382 -116 395 -116 2 0 3 10 3
23 -1 14 -3 16 -6 6 -3 -13 -21 -11 -133 19 l-128 35 23 51 c13 28 27 65 31
81 6 27 7 28 14 10 7 -16 9 -12 9 18 1 20 -1 37 -4 37 -2 0 -14 -18 -25 -40
-16 -32 -26 -40 -48 -40 -15 0 -33 5 -40 12 -16 16 -15 60 0 77 7 8 8 11 2 8
-8 -5 -13 26 -18 101 -4 59 -9 116 -12 127 -4 15 4 25 26 39 17 10 33 16 35
14 2 -2 5 -51 7 -110 2 -75 6 -103 14 -97 6 5 14 7 17 4 4 -3 5 -2 2 2 -3 3 0
12 6 19 6 8 9 20 6 28 -4 10 2 16 16 18 13 2 23 11 25 23 2 11 15 50 28 86 21
56 28 66 44 62 28 -7 25 -18 -16 -75 -19 -28 -33 -53 -29 -56 3 -4 9 -1 14 6
5 9 12 9 27 -3 11 -8 14 -15 7 -15 -8 0 -13 -14 -13 -36 0 -23 4 -33 11 -28 6
3 8 16 5 29 -7 29 48 82 69 65 19 -16 60 37 44 56 -6 8 -18 14 -25 14 -8 0
-14 7 -14 17 0 9 -3 14 -6 10 -8 -8 4 -58 14 -54 4 1 7 -2 7 -8 0 -5 -4 -8
-10 -6 -5 2 -25 7 -43 10 l-32 6 25 37 c24 35 25 74 1 62 -6 -3 0 4 14 16 14
12 18 19 10 15 -8 -4 -1 5 15 20 17 14 23 23 15 20 -8 -4 -1 4 15 19 17 14 26
25 20 26 -5 0 0 7 12 15 13 9 20 22 16 31 -3 8 -2 14 3 12 5 -2 10 2 12 7 2 6
10 14 18 18 8 5 12 12 9 17 -3 5 4 14 15 20 11 6 19 14 19 18 -3 20 2 32 11
27 6 -4 9 -2 8 3 -2 5 32 55 74 113 42 57 99 135 127 174 46 63 54 70 84 68
31 -2 31 -1 4 5 l-27 7 126 175 c69 96 146 200 171 230 39 47 43 56 29 66 -9
6 -16 16 -16 23 0 22 -25 10 -45 -22 -29 -48 -30 -56 -3 -23 20 24 26 26 31
13 4 -10 -12 -39 -42 -79 -26 -35 -134 -184 -240 -332 -202 -282 -487 -674
-503 -691 -6 -7 -15 -3 -26 11 -15 18 -26 20 -81 16 l-64 -5 5 31 c2 17 1 29
-4 26 -4 -3 -5 14 -2 38 5 30 22 64 59 114 29 39 78 110 110 157 31 48 61 87
66 87 5 0 8 4 6 9 -1 5 7 17 18 26 11 9 13 14 5 10 -8 -4 -6 1 5 10 11 9 21
20 21 25 1 6 2 15 3 20 0 6 7 9 14 8 7 -2 11 5 9 15 -2 9 1 16 5 15 4 -2 9 1
10 6 1 5 7 12 15 17 7 5 14 13 14 19 1 5 2 15 3 20 0 6 7 9 14 8 7 -2 11 5 9
15 -2 9 1 16 7 15 5 -2 9 1 9 6 0 5 6 12 14 17 7 5 14 13 14 19 1 5 2 15 3 20
0 6 7 9 14 8 7 -2 11 5 9 15 -2 9 2 16 9 15 6 -2 13 4 14 13 4 23 209 313 267
377 26 30 48 62 48 73 0 20 -15 26 -25 9 -12 -19 -22 -10 -17 15 6 34 -9 31
-39 -7z"/>
<path d="M2100 5138 c0 -31 -5 -39 -35 -57 -19 -11 -35 -28 -35 -37 0 -9 -17
-37 -38 -63 -77 -93 -195 -268 -232 -346 -54 -111 -80 -220 -78 -319 l1 -81 7
95 c12 168 73 283 238 447 62 62 116 113 120 113 4 0 14 -20 21 -45 7 -24 19
-49 26 -55 17 -14 29 -138 27 -270 -1 -58 2 -123 7 -145 6 -28 7 -4 5 75 l-4
115 20 -90 c12 -49 24 -122 28 -161 8 -76 2 -67 107 -157 25 -22 27 -27 13
-32 -9 -4 -26 -1 -38 5 -12 6 -24 9 -27 6 -7 -7 -93 79 -93 95 0 7 -3 9 -6 6
-10 -10 45 -85 78 -109 43 -30 25 -35 -20 -5 -22 14 -58 53 -81 87 -46 70 -57
69 -13 -1 35 -54 93 -106 141 -126 l36 -15 -35 -30 c-19 -17 -25 -25 -14 -19
12 6 33 24 47 41 28 33 43 39 33 14 -5 -14 -4 -15 8 -5 10 8 16 9 21 1 9 -15
134 -76 173 -85 18 -3 32 -13 32 -21 0 -16 16 -19 22 -5 2 5 44 -6 93 -26 51
-20 113 -37 143 -39 30 -2 69 -8 88 -14 l33 -11 -25 -57 c-40 -89 -40 -89 -22
-74 8 7 23 37 33 67 9 30 22 55 29 55 7 0 39 -9 71 -20 32 -11 65 -20 74 -19
9 0 -58 26 -149 58 -249 87 -498 188 -547 222 -25 16 -49 26 -55 23 -6 -4 -8
-2 -5 4 4 5 -22 33 -58 62 -66 53 -71 61 -78 140 -2 25 -18 126 -36 224 -17
99 -31 190 -31 202 0 53 83 68 208 38 72 -18 104 -38 100 -63 -1 -9 4 -26 11
-39 7 -13 16 -42 21 -65 8 -34 8 -29 4 28 -7 93 -10 103 -44 120 -26 13 -28
18 -20 41 6 14 10 46 10 70 l0 45 32 -22 31 -23 -7 65 c-4 35 -7 80 -7 99 l-1
35 -10 -36 -9 -37 -44 24 c-55 31 -131 54 -209 62 -55 6 -61 9 -64 32 -6 42
-22 48 -22 8z m-144 -301 c-53 -54 -122 -138 -156 -188 -33 -50 -60 -88 -60
-86 0 3 11 30 25 62 33 73 110 188 199 295 l71 85 8 -35 c7 -35 5 -38 -87
-133z m252 123 c13 0 16 -42 6 -102 -6 -33 -10 -38 -33 -38 -14 0 -40 -4 -58
-9 l-31 -9 -12 51 c-7 29 -14 59 -16 68 -6 23 68 52 111 43 11 -2 26 -4 33 -4z"/>
<path d="M10450 5076 c-47 -32 -485 -311 -586 -374 -45 -28 -85 -48 -88 -45
-3 4 -6 1 -6 -5 0 -7 -7 -12 -15 -12 -9 0 -18 -7 -22 -16 -3 -8 -11 -13 -18
-10 -8 3 -16 -2 -19 -10 -3 -8 -11 -14 -18 -14 -9 0 -9 3 2 11 13 9 13 10 0 6
-8 -2 -15 -9 -15 -16 0 -12 -23 -31 -39 -31 -6 0 -1 7 10 16 18 14 18 15 -3 4
-13 -6 -22 -16 -20 -22 1 -6 -4 -13 -12 -16 -9 -3 -11 0 -6 8 6 9 3 9 -14 1
-24 -13 -28 -23 -6 -15 26 11 16 -4 -19 -25 -36 -23 -51 -27 -41 -11 8 12 -88
-21 -150 -53 -100 -51 -106 -43 92 -133 173 -79 178 -82 184 -115 4 -19 7 -26
8 -16 2 27 21 20 21 -8 0 -14 -4 -25 -10 -25 -6 0 -9 -38 -8 -97 l2 -98 6 95
c5 82 7 87 10 40 3 -48 5 -43 9 37 l6 91 109 -49 c61 -26 110 -47 111 -46 0 1
6 17 12 35 7 21 9 42 3 56 -8 21 -2 26 61 57 38 19 69 37 69 41 0 14 320 209
331 202 8 -4 9 -3 5 4 -4 7 -13 12 -20 12 -7 0 -84 -45 -171 -100 -88 -55
-168 -100 -177 -100 -10 0 -18 -4 -18 -10 0 -5 -22 -21 -50 -35 -41 -21 -53
-23 -69 -13 -16 10 -31 7 -86 -14 -56 -23 -65 -24 -59 -10 4 9 8 32 8 50 -1
31 5 36 85 83 107 61 81 46 267 167 115 74 160 99 166 90 5 -9 8 -6 8 10 0 12
3 22 8 22 4 0 18 10 32 21 22 18 20 18 -15 -2 -22 -13 -108 -67 -192 -120 -83
-54 -154 -95 -157 -91 -3 3 -6 0 -6 -6 0 -7 -3 -11 -7 -11 -22 4 -43 -2 -40
-12 3 -13 -171 -110 -178 -99 -3 5 34 30 82 54 48 25 85 45 80 45 -4 1 -47
-19 -95 -43 -48 -24 -108 -50 -132 -56 -25 -7 -62 -21 -84 -32 l-39 -20 7 54
c3 29 7 58 8 63 1 6 -2 20 -6 32 -6 18 5 30 87 85 54 37 103 64 116 63 13 -1
20 3 17 10 -3 9 238 170 277 184 6 2 16 8 22 13 5 5 110 72 232 147 122 76
220 141 216 145 -9 9 -14 7 -53 -18z"/>
<path d="M2882 4898 c74 -85 104 -126 129 -176 17 -34 18 -35 20 -12 1 14 2
31 2 38 -1 7 2 11 5 8 9 -9 29 26 51 89 37 105 23 126 -31 46 l-33 -49 -37 32
c-21 18 -59 43 -85 55 -26 13 -56 28 -66 33 -11 5 10 -24 45 -64z"/>
<path d="M1340 4826 c0 -8 -10 -23 -23 -33 -38 -30 -43 -49 -5 -20 83 64 54
27 -201 -252 -68 -75 -236 -261 -374 -413 -138 -153 -255 -278 -260 -278 -5 0
-11 9 -14 20 -3 11 -10 20 -15 20 -10 0 -1 -38 14 -57 6 -7 17 -13 24 -13 22
0 17 -12 -27 -60 l-40 -45 27 48 c14 26 24 51 20 54 -4 4 -27 -13 -51 -37 -44
-43 -45 -43 -61 -25 -15 19 -15 19 -9 -5 4 -14 7 -46 7 -72 1 -41 3 -46 17
-38 9 4 23 20 31 34 19 36 27 33 38 -16 7 -36 5 -48 -12 -72 -11 -16 -15 -26
-8 -22 9 5 12 -7 12 -47 0 -49 3 -55 27 -66 20 -9 28 -9 34 0 5 8 9 4 12 -12
2 -13 5 -4 6 22 3 106 64 234 160 334 24 25 40 45 35 44 -5 -1 -17 -1 -28 0
-15 1 -16 4 -6 16 11 13 10 14 -6 7 -11 -5 -34 -15 -51 -23 -26 -11 -32 -18
-27 -34 9 -27 8 -27 38 -15 l27 10 -30 -38 c-34 -42 -101 -166 -101 -187 0
-21 -19 -28 -35 -15 -8 7 -22 10 -30 6 -10 -4 -15 1 -15 15 0 18 4 20 30 14
29 -6 30 -6 20 20 -6 15 -8 30 -5 35 3 5 1 19 -4 32 -6 16 -5 29 4 42 8 10 11
24 8 32 -8 22 23 62 67 84 22 11 40 23 40 25 0 3 -18 -4 -40 -15 -43 -22 -70
-19 -49 6 6 7 16 11 22 7 6 -3 7 -1 3 5 -8 13 72 105 84 97 4 -2 22 12 41 33
l34 37 -32 -29 c-18 -17 -33 -25 -33 -20 0 13 75 86 81 79 3 -2 21 12 40 33
l34 37 -32 -29 c-64 -58 -32 -12 79 111 l112 124 16 -60 c15 -54 59 -135 68
-126 2 2 -6 17 -18 33 -12 16 -30 60 -41 97 l-18 66 196 215 195 214 29 -40
c16 -22 31 -40 34 -40 3 0 -4 14 -17 30 -21 29 -21 31 -5 59 22 38 22 38 -13
56 -26 13 -30 13 -30 1z"/>
<path d="M6457 4618 c-32 -11 -56 -22 -54 -24 2 -3 16 0 31 5 17 7 26 7 26 1
0 -6 14 -10 30 -10 45 0 37 -26 -12 -43 -24 -8 -185 -64 -358 -125 -173 -61
-340 -118 -370 -127 -30 -10 -82 -28 -115 -40 -103 -39 -113 -39 -55 1 30 20
56 41 58 45 2 4 26 15 53 24 28 10 49 19 46 21 -7 7 -151 -46 -192 -70 -22
-14 -72 -43 -111 -65 -40 -23 -74 -47 -77 -55 -5 -12 41 -56 58 -56 4 0 32 15
64 34 32 18 74 39 94 45 21 7 35 17 32 22 -4 5 0 6 8 3 8 -3 30 2 48 10 31 14
21 14 -31 -1 -10 -3 -9 0 3 7 9 6 162 62 340 124 177 63 372 132 433 155 61
22 119 41 128 41 23 0 22 62 -1 82 -16 14 -24 13 -76 -4z"/>
<path d="M9209 4423 c5 -10 19 -115 31 -233 12 -118 27 -278 35 -355 8 -77 23
-226 34 -332 18 -168 51 -536 51 -564 0 -6 -4 -8 -9 -5 -5 4 -8 -1 -7 -9 3
-18 16 -32 16 -17 0 6 6 9 13 6 7 -2 31 8 53 23 21 16 56 37 76 48 20 10 34
23 31 29 -4 5 1 7 11 3 11 -5 15 -3 10 5 -5 8 -2 9 10 5 9 -4 15 -3 12 2 -3 5
8 14 24 21 17 7 33 16 36 21 6 10 -75 -27 -136 -62 -99 -58 -108 -61 -119 -42
-5 10 -17 92 -26 183 -9 91 -41 403 -71 694 -30 292 -54 538 -54 549 0 14 5
17 23 11 28 -8 21 -1 -21 20 -31 16 -32 16 -23 -1z"/>
<path d="M6575 4395 l-40 -13 48 5 c31 4 47 2 47 -5 0 -6 -21 -18 -47 -25 -27
-8 -223 -65 -438 -127 -734 -211 -677 -193 -659 -218 8 -12 23 -21 32 -21 15
1 15 2 0 6 -10 2 -18 8 -18 12 0 4 71 28 158 54 727 215 893 261 932 263 42 1
45 3 48 31 4 42 -14 53 -63 38z"/>
<path d="M5290 4098 c11 -16 8 -18 -41 -20 -40 -1 -45 -2 -19 -5 19 -3 40 -9
45 -14 7 -7 7 -10 0 -8 -13 3 -74 -24 -100 -45 -20 -15 -20 -15 1 -11 12 2 39
12 61 23 56 29 66 18 49 -49 -37 -137 -89 -233 -174 -316 -37 -36 -52 -55 -34
-42 29 21 35 22 55 10 21 -13 21 -13 5 5 -16 18 -14 21 29 67 35 38 44 43 39
25 -3 -12 -8 -41 -11 -63 -4 -32 -2 -29 10 15 7 30 11 63 8 74 -3 10 -1 16 4
13 5 -3 31 61 58 144 l48 149 31 -24 c28 -21 32 -31 36 -87 5 -58 6 -61 13
-31 5 17 5 47 2 65 l-7 32 22 -20 23 -20 -18 28 c-10 15 -34 35 -54 43 -19 8
-48 29 -64 47 -16 18 -24 24 -17 15z"/>
<path d="M5014 3695 c-20 -25 -60 -62 -88 -82 -73 -54 -82 -63 -59 -63 11 0
24 5 30 11 17 17 46 2 40 -20 -5 -21 22 -24 38 -4 6 7 24 16 42 19 32 6 32 6
27 -28 -4 -24 -1 -39 13 -53 10 -11 15 -16 11 -11 -13 16 -9 29 6 23 9 -4 17
1 19 11 4 15 5 14 6 -2 1 -12 6 -16 16 -12 23 8 18 -11 -7 -28 -12 -9 -18 -16
-12 -16 14 0 39 29 48 55 7 18 8 18 29 -6 12 -14 18 -20 14 -13 -4 7 -7 16 -6
20 6 35 -23 58 -97 77 -51 12 -117 11 -95 -2 8 -5 3 -12 -15 -20 -24 -10 -26
-10 -15 2 9 12 7 16 -10 20 -20 5 -18 10 32 69 68 78 83 98 76 98 -3 0 -22
-20 -43 -45z"/>
<path d="M1309 3631 c16 -10 17 -74 6 -246 -6 -88 -11 -107 -40 -160 -38 -68
-123 -161 -137 -147 -5 5 0 27 11 53 11 24 22 62 25 84 l6 40 -15 -45 -15 -45
5 50 c4 43 3 46 -6 20 -5 -16 -7 -43 -4 -58 2 -15 1 -26 -4 -23 -5 3 -12 -6
-15 -22 -13 -53 -41 -112 -56 -116 -12 -3 -12 -4 1 -5 33 -2 158 117 214 203
l19 28 19 -23 c11 -13 21 -22 23 -20 14 12 42 -13 63 -55 48 -99 61 -115 82
-103 17 9 18 12 5 25 -9 8 -18 31 -22 50 -4 23 -9 31 -14 24 -6 -9 -10 -7 -14
8 -4 11 -18 32 -31 46 -43 46 -66 145 -72 304 -6 136 -7 142 -27 142 -16 0
-18 -2 -7 -9z"/>
<path d="M11728 3148 c-62 -32 -119 -58 -125 -58 -7 0 -13 -7 -13 -15 0 -8 -4
-15 -10 -15 -37 0 -49 -24 -37 -76 6 -24 13 -41 17 -39 3 2 5 -10 4 -26 -4
-55 62 -66 288 -47 l146 11 0 131 c1 88 -2 122 -8 103 -5 -16 -14 -34 -20 -42
-6 -7 -13 -23 -15 -35 -5 -27 -23 -50 -39 -50 -6 0 -33 -11 -61 -24 -51 -25
-81 -20 -52 8 9 9 20 16 26 16 13 0 81 80 81 96 0 7 -12 11 -28 10 -28 -2 -28
-1 -15 25 8 15 29 41 48 57 l33 30 -54 -1 c-44 -1 -72 -11 -166 -59z"/>
<path d="M497 2653 c-9 -8 -9 -136 -1 -157 4 -10 18 -16 39 -16 30 0 33 -3 40
-37 4 -21 9 -33 12 -27 2 7 22 10 46 9 24 -1 28 -1 10 2 -36 5 -41 20 -23 67
5 14 6 26 1 26 -4 0 -20 22 -34 49 -15 27 -34 54 -42 61 -8 7 -12 16 -9 21 6
10 -29 12 -39 2z"/>
<path d="M11918 2055 c-3 -3 -55 -15 -116 -25 -103 -18 -152 -35 -152 -52 0
-15 28 -14 80 5 30 10 61 23 68 29 23 19 12 -6 -15 -34 l-27 -28 25 0 c13 0
42 5 64 10 22 5 62 12 90 15 63 8 65 10 65 51 0 33 -1 34 -38 34 -21 0 -41 -2
-44 -5z"/>
<path d="M11925 769 c-33 -17 -75 -42 -92 -56 -18 -13 -86 -52 -150 -87 -193
-103 -273 -150 -273 -163 0 -7 44 6 108 32 136 54 157 61 147 46 -11 -18 -413
-211 -439 -211 -14 0 -125 -53 -149 -72 -15 -12 -12 -13 30 -9 26 2 51 8 54
13 3 5 28 12 55 14 110 10 137 15 125 27 -6 6 -11 15 -11 20 0 12 144 -3 152
-16 9 -14 129 13 258 60 125 45 156 52 213 53 46 0 47 1 47 31 0 29 -2 31 -26
25 -16 -4 -23 -3 -19 3 3 6 -10 4 -29 -4 -48 -20 -73 -20 -56 0 11 13 8 15
-19 15 -41 0 -39 13 4 40 42 26 44 37 8 47 l-28 7 25 7 c14 4 44 7 67 8 73 2
73 2 73 107 0 52 -3 94 -7 94 -5 0 -35 -14 -68 -31z"/>
<path d="M8863 369 c-102 -30 -95 -188 10 -228 102 -38 192 62 142 159 -29 57
-94 86 -152 69z"/>
<path d="M4065 283 c-22 -14 -85 -59 -140 -98 -76 -55 -115 -76 -162 -89 -71
-18 -152 -56 -173 -81 -14 -16 -10 -17 55 -12 39 4 102 13 140 21 l70 16 -65
-6 -65 -5 50 36 c48 35 53 36 115 32 71 -4 175 -44 206 -78 9 -11 22 -19 28
-19 6 0 -4 12 -22 26 l-32 25 60 51 c33 27 60 52 60 54 0 3 -28 -18 -62 -46
-41 -32 -68 -48 -78 -44 -60 27 -122 43 -165 44 l-49 0 80 59 c43 32 93 65
109 74 31 17 94 66 85 67 -3 0 -23 -12 -45 -27z"/>
</g>
</svg>
